<svg version="1.1" id="svglayer" xmlns="http://www.w3.org/2000/svg" xmlns:xlink="http://www.w3.org/1999/xlink" 
 viewBox="0 0 800 600" x="0px" y="0px" width="800px" height="600px" xml:space="preserve">
<g fill="#000000" stroke="#000000" stroke-width="1" stroke-miterlimit="1">
<polygon points="413.8,345.9 398.5,346.3 399.9,346.5 415.3,346.2" />
<polygon points="477.3,345.9 454.6,346.7 466.2,346.7 516.8,345.9" />
<polygon points="415.3,346.2 399.9,346.5 401.0,346.7 403.2,346.7" />
<polygon points="485.0,346.0 475.3,346.1 507.2,351.3 517.3,351.3" />
<polygon points="492.4,346.3 485.0,346.0 517.3,351.3 524.9,351.5" />
<polygon points="475.3,346.1 463.8,346.5 495.4,351.7 507.2,351.3" />
<polygon points="448.0,348.0 466.2,346.7 454.6,346.7" />
<polygon points="496.9,346.8 492.4,346.3 524.9,351.5 529.7,352.1" />
<polygon points="403.2,346.7 401.0,346.7 433.6,352.5 435.9,352.5" />
<polygon points="463.8,346.5 451.2,347.2 482.5,352.5 495.4,351.7" />
<polygon points="396.8,349.7 415.3,346.2 403.2,346.7 386.7,349.7" />
<polygon points="477.3,345.6 516.8,349.9 546.8,348.9 516.8,345.9" />
<polygon points="398.5,346.3 379.6,349.8 381.1,350.0 399.9,346.5" />
<polygon points="399.9,346.5 381.1,350.0 384.5,349.7 401.0,346.7" />
<polygon points="451.2,347.2 438.3,348.1 469.4,353.5 482.5,352.5" />
<polygon points="475.7,350.7 449.6,346.8 443.1,347.5 461.0,350.2" />
<polygon points="449.6,346.8 475.7,350.7 516.8,349.9 477.3,345.6" />
<polygon points="426.4,349.1 431.0,349.5 448.0,348.0 454.6,346.7" />
<polygon points="401.0,346.7 384.5,349.7 417.1,355.8 433.6,352.5" />
<polygon points="438.3,348.1 426.0,349.2 456.9,354.7 469.4,353.5" />
<polygon points="381.1,350.0 396.8,349.7 386.7,349.7 384.5,349.7" />
<polygon points="431.5,348.8 408.6,353.5 443.1,347.5" />
<polygon points="406.9,352.5 431.0,349.5 426.4,349.1 404.0,351.9" />
<polygon points="426.0,349.2 415.0,350.5 445.8,356.1 456.9,354.7" />
<polygon points="475.7,350.7 461.0,350.2 478.9,353.1 518.9,358.3" />
<polygon points="408.6,353.5 431.5,348.8 406.9,352.5" />
<polygon points="415.0,350.5 406.2,351.8 437.0,357.5 445.8,356.1" />
<polygon points="517.3,351.3 507.2,351.3 481.0,356.5" />
<polygon points="524.9,351.5 517.3,351.3 481.0,356.5" />
<polygon points="507.2,351.3 495.4,351.7 481.0,356.5" />
<polygon points="529.7,352.1 524.9,351.5 481.0,356.5" />
<polygon points="463.2,352.4 464.8,352.7 478.9,353.1 461.0,350.2" />
<polygon points="495.4,351.7 482.5,352.5 481.0,356.5" />
<polygon points="433.6,352.5 438.3,353.4 440.6,353.3 435.9,352.5" />
<polygon points="436.0,353.0 437.5,353.3 464.8,352.7 463.2,352.4" />
<polygon points="531.3,353.0 529.7,352.1 481.0,356.5" />
<polygon points="450.2,355.1 463.2,352.4 461.0,350.2 433.9,354.8" />
<polygon points="406.2,351.8 400.3,353.1 431.0,358.9 437.0,357.5" />
<polygon points="482.5,352.5 469.4,353.5 481.0,356.5" />
<polygon points="408.6,353.5 433.9,354.8 461.0,350.2 443.1,347.5" />
<polygon points="516.8,349.9 561.3,357.1 598.0,356.9 546.8,348.9" />
<polygon points="529.5,354.2 531.3,353.0 481.0,356.5" />
<polygon points="469.4,353.5 456.9,354.7 481.0,356.5" />
<polygon points="433.6,352.5 417.1,355.8 420.4,356.7 438.3,353.4" />
<polygon points="464.8,352.7 450.4,355.4 454.6,357.2 478.9,353.1" />
<polygon points="400.3,353.1 397.6,354.3 428.4,360.1 431.0,358.9" />
<polygon points="394.2,354.3 386.0,355.6 406.9,352.5 404.0,351.9" />
<polygon points="437.5,353.3 422.7,356.0 450.4,355.4 464.8,352.7" />
<polygon points="475.7,350.7 518.9,358.3 561.3,357.1 516.8,349.9" />
<polygon points="492.9,356.1 478.9,353.1 454.6,357.2 475.1,360.0" />
<polygon points="524.4,355.5 529.5,354.2 481.0,356.5" />
<polygon points="440.6,353.3 438.3,353.4 514.9,367.4 517.4,367.3" />
<polygon points="450.4,355.4 450.2,355.1 433.9,354.8 454.6,357.2" />
<polygon points="408.6,353.5 400.2,356.9 424.0,357.8 433.9,354.8" />
<polygon points="456.9,354.7 445.8,356.1 481.0,356.5" />
<polygon points="397.6,354.3 398.4,355.2 429.5,361.1 428.4,360.1" />
<polygon points="373.5,359.8 408.6,353.5 406.9,352.5 386.0,355.6" />
<polygon points="516.3,356.9 524.4,355.5 481.0,356.5" />
<polygon points="445.8,356.1 437.0,357.5 481.0,356.5" />
<polygon points="433.9,354.8 424.0,357.8 439.0,360.1 454.6,357.2" />
<polygon points="438.3,353.4 420.4,356.7 497.1,371.3 514.9,367.4" />
<polygon points="417.8,356.0 398.4,356.3 434.3,363.0 454.7,362.9" />
<polygon points="505.6,358.3 516.3,356.9 481.0,356.5" />
<polygon points="492.9,356.1 510.3,358.9 518.9,358.3 478.9,353.1" />
<polygon points="373.5,359.8 400.2,356.9 408.6,353.5" />
<polygon points="437.0,357.5 431.0,358.9 481.0,356.5" />
<polygon points="486.6,362.0 448.5,355.2 438.8,355.5 476.6,362.4" />
<polygon points="491.3,357.3 505.2,359.5 510.3,358.9 492.9,356.1" />
<polygon points="476.1,360.6 491.3,357.3 492.9,356.1 475.1,360.0" />
<polygon points="476.6,362.4 438.8,355.5 417.8,356.0 454.7,362.9" />
<polygon points="493.0,359.6 505.6,358.3 481.0,356.5" />
<polygon points="491.3,357.3 476.1,360.6 505.2,359.5" />
<polygon points="431.0,358.9 428.4,360.1 481.0,356.5" />
<polygon points="454.6,357.2 439.0,360.1 459.7,362.3 475.1,360.0" />
<polygon points="479.3,360.7 493.0,359.6 481.0,356.5" />
<polygon points="428.4,360.1 429.5,361.1 481.0,356.5" />
<polygon points="606.7,364.4 561.3,357.1 518.9,358.3 566.2,366.0" />
<polygon points="651.0,365.1 598.0,356.9 561.3,357.1 606.7,364.4" />
<polygon points="424.0,357.8 417.6,363.3 439.0,360.1" />
<polygon points="465.7,361.5 479.3,360.7 481.0,356.5" />
<polygon points="400.2,356.9 391.3,363.7 417.6,363.3 424.0,357.8" />
<polygon points="429.5,361.1 434.2,361.8 481.0,356.5" />
<polygon points="505.2,359.5 518.0,361.9 526.7,361.9 510.3,358.9" />
<polygon points="453.0,362.0 465.7,361.5 481.0,356.5" />
<polygon points="434.2,361.8 442.2,362.1 481.0,356.5" />
<polygon points="442.2,362.1 453.0,362.0 481.0,356.5" />
<polygon points="460.6,363.0 476.1,360.6 475.1,360.0 459.7,362.3" />
<polygon points="518.9,358.3 545.6,364.5 562.0,367.2 566.2,366.0" />
<polygon points="439.0,360.1 417.6,363.3 443.1,365.2 459.7,362.3" />
<polygon points="505.2,359.5 501.3,365.1 518.0,361.9" />
<polygon points="476.1,360.6 501.3,365.1 505.2,359.5" />
<polygon points="526.7,361.9 545.6,364.5 518.9,358.3 510.3,358.9" />
<polygon points="373.5,359.8 373.3,365.0 391.3,363.7 400.2,356.9" />
<polygon points="476.1,360.6 460.6,363.0 484.6,368.1 501.3,365.1" />
<polygon points="345.9,362.8 340.8,365.0 373.5,359.8 386.0,355.6" />
<polygon points="518.0,361.9 501.3,365.1 507.2,365.7 526.7,361.9" />
<polygon points="444.0,365.9 460.6,363.0 459.7,362.3 443.1,365.2" />
<polygon points="526.7,361.9 507.2,365.7 523.6,369.6 545.6,364.5" />
<polygon points="460.6,363.0 444.0,365.9 468.2,370.8 484.6,368.1" />
<polygon points="345.9,362.8 314.7,368.7 310.4,370.5 340.8,365.0" />
<polygon points="340.8,365.0 341.2,369.1 373.3,365.0 373.5,359.8" />
<polygon points="501.3,365.1 484.6,368.1 490.6,368.7 507.2,365.7" />
<polygon points="548.0,367.1 549.9,367.4 562.0,367.2 545.6,364.5" />
<polygon points="566.2,366.0 562.0,367.2 586.5,372.6 602.6,372.7" />
<polygon points="391.3,363.7 352.7,370.4 362.5,371.5 417.6,363.3" />
<polygon points="679.8,371.5 651.0,365.1 606.7,364.4 641.6,372.4" />
<polygon points="514.9,367.4 520.4,368.4 522.9,368.3 517.4,367.3" />
<polygon points="507.2,365.7 490.6,368.7 507.8,372.5 523.6,369.6" />
<polygon points="373.3,365.0 343.9,370.1 352.7,370.4 391.3,363.7" />
<polygon points="518.0,368.0 519.8,368.3 549.9,367.4 548.0,367.1" />
<polygon points="641.6,372.4 606.7,364.4 566.2,366.0 602.6,372.7" />
<polygon points="533.6,370.3 548.0,367.1 545.6,364.5 523.6,369.6" />
<polygon points="417.6,363.3 362.5,371.5 379.7,374.9 443.1,365.2" />
<polygon points="340.8,365.0 310.4,370.5 315.9,373.1 341.2,369.1" />
<polygon points="514.9,367.4 497.1,371.3 504.0,372.3 520.4,368.4" />
<polygon points="549.9,367.4 536.8,370.6 541.2,374.2 562.0,367.2" />
<polygon points="484.6,368.1 468.2,370.8 474.2,371.5 490.6,368.7" />
<polygon points="380.4,375.7 444.0,365.9 443.1,365.2 379.7,374.9" />
<polygon points="614.2,368.3 590.6,369.6 587.5,375.0" />
<polygon points="519.8,368.3 506.2,371.5 536.8,370.6 549.9,367.4" />
<polygon points="536.8,370.6 533.6,370.3 523.6,369.6 541.2,374.2" />
<polygon points="341.2,369.1 321.6,373.1 343.9,370.1 373.3,365.0" />
<polygon points="490.6,368.7 474.2,371.5 490.1,376.7 507.8,372.5" />
<polygon points="590.6,369.6 559.6,372.5 587.5,375.0" />
<polygon points="523.6,369.6 507.8,372.5 522.3,376.2 541.2,374.2" />
<polygon points="562.0,367.2 541.2,374.2 554.3,380.4 586.5,372.6" />
<polygon points="444.0,365.9 380.4,375.7 405.3,381.2 468.2,370.8" />
<polygon points="314.7,368.7 280.2,375.8 275.8,377.6 310.4,370.5" />
<polygon points="628.2,369.3 670.9,376.2 680.0,376.6 636.9,369.6" />
<polygon points="617.1,369.4 659.4,376.3 670.9,376.2 628.2,369.3" />
<polygon points="641.6,372.4 635.1,374.8 679.8,371.5" />
<polygon points="636.9,369.6 680.0,376.6 686.2,377.4 642.7,370.4" />
<polygon points="587.5,375.0 618.2,374.4 642.0,367.7 614.2,368.3" />
<polygon points="604.2,369.9 646.1,376.9 659.4,376.3 617.1,369.4" />
<polygon points="586.5,372.6 588.7,376.3 602.6,372.7" />
<polygon points="315.9,373.1 300.8,376.3 321.6,373.1 341.2,369.1" />
<polygon points="659.3,375.7 681.8,374.0 679.8,371.5" />
<polygon points="559.6,372.5 536.8,376.3 587.5,375.0" />
<polygon points="602.6,372.7 613.4,376.4 635.1,374.8 641.6,372.4" />
<polygon points="590.5,370.8 632.1,377.8 646.1,376.9 604.2,369.9" />
<polygon points="310.4,370.5 275.8,377.6 278.0,379.2 315.9,373.1" />
<polygon points="343.9,370.1 288.1,381.2 352.7,370.4" />
<polygon points="562.7,376.0 565.3,375.9 522.9,368.3 520.4,368.4" />
<polygon points="507.8,372.5 490.1,376.7 522.3,376.2" />
<polygon points="300.8,376.3 315.9,373.1 278.0,379.2 270.2,381.4" />
<polygon points="563.1,376.1 581.3,375.5 579.2,375.2 561.1,375.7" />
<polygon points="576.6,372.0 618.0,379.2 632.1,377.8 590.5,370.8" />
<polygon points="321.6,373.1 288.1,381.2 343.9,370.1" />
<polygon points="635.1,374.8 637.0,377.4 659.3,375.7 679.8,371.5" />
<polygon points="541.2,374.2 522.3,376.2 532.1,382.0 554.3,380.4" />
<polygon points="586.5,372.6 554.3,380.4 588.7,376.3" />
<polygon points="546.5,380.2 562.7,376.0 520.4,368.4 504.0,372.3" />
<polygon points="613.4,376.4 637.0,377.4 635.1,374.8" />
<polygon points="468.2,370.8 405.3,381.2 411.5,381.9 474.2,371.5" />
<polygon points="352.7,370.4 288.1,381.2 292.8,383.6 362.5,371.5" />
<polygon points="588.7,376.3 594.2,378.2 613.4,376.4 602.6,372.7" />
<polygon points="522.3,376.2 490.1,376.7 489.4,382.6 532.1,382.0" />
<polygon points="563.6,373.5 604.8,380.8 618.0,379.2 576.6,372.0" />
<polygon points="536.8,376.3 528.6,379.7 587.5,375.0" />
<polygon points="582.7,381.6 618.2,374.4 587.5,375.0 558.8,382.2" />
<polygon points="613.4,376.4 594.2,378.2 603.2,380.3 637.0,377.4" />
<polygon points="474.2,371.5 411.5,381.9 429.1,385.5 490.1,376.7" />
<polygon points="300.8,376.3 288.1,381.2 321.6,373.1" />
<polygon points="544.6,381.1 563.1,376.1 561.1,375.7 542.6,380.7" />
<polygon points="618.2,374.4 582.7,381.6 593.6,381.2" />
<polygon points="362.5,371.5 292.8,383.6 303.3,387.1 379.7,374.9" />
<polygon points="563.1,376.1 544.6,381.1 563.4,380.5 581.3,375.5" />
<polygon points="552.2,375.2 593.3,382.6 604.8,380.8 563.6,373.5" />
<polygon points="659.4,376.3 634.5,383.2 670.9,376.2" />
<polygon points="670.9,376.2 634.5,383.2 680.0,376.6" />
<polygon points="588.7,376.3 571.4,382.8 594.2,378.2" />
<polygon points="646.1,376.9 634.5,383.2 659.4,376.3" />
<polygon points="680.0,376.6 634.5,383.2 686.2,377.4" />
<polygon points="632.1,377.8 634.5,383.2 646.1,376.9" />
<polygon points="686.2,377.4 634.5,383.2 689.1,378.6" />
<polygon points="528.6,379.7 536.2,382.4 587.5,375.0" />
<polygon points="270.2,381.4 288.1,381.2 300.8,376.3" />
<polygon points="303.7,388.0 380.4,375.7 379.7,374.9 303.3,387.1" />
<polygon points="618.0,379.2 634.5,383.2 632.1,377.8" />
<polygon points="554.3,380.4 571.4,382.8 588.7,376.3" />
<polygon points="689.1,378.6 634.5,383.2 688.3,380.1" />
<polygon points="543.4,377.0 584.5,384.5 593.3,382.6 552.2,375.2" />
<polygon points="594.2,378.2 571.4,382.8 581.6,384.5 603.2,380.3" />
<polygon points="280.2,375.8 235.7,384.9 232.5,386.7 275.8,377.6" />
<polygon points="270.2,381.4 278.0,379.2 234.6,386.9 233.6,388.0" />
<polygon points="536.2,382.4 558.8,382.2 587.5,375.0" />
<polygon points="604.8,380.8 634.5,383.2 618.0,379.2" />
<polygon points="688.3,380.1 634.5,383.2 683.9,381.9" />
<polygon points="288.1,381.2 270.2,381.4 233.6,388.0 226.3,390.3" />
<polygon points="593.3,382.6 634.5,383.2 604.8,380.8" />
<polygon points="275.8,377.6 232.5,386.7 234.6,386.9 278.0,379.2" />
<polygon points="537.7,378.7 579.0,386.4 584.5,384.5 543.4,377.0" />
<polygon points="683.9,381.9 634.5,383.2 676.0,383.8" />
<polygon points="380.4,375.7 303.7,388.0 329.8,394.7 405.3,381.2" />
<polygon points="584.5,384.5 634.5,383.2 593.3,382.6" />
<polygon points="676.0,383.8 634.5,383.2 665.1,385.7" />
<polygon points="535.7,380.2 577.3,388.1 579.0,386.4 537.7,378.7" />
<polygon points="532.1,382.0 520.6,389.2 554.3,380.4" />
<polygon points="579.0,386.4 634.5,383.2 584.5,384.5" />
<polygon points="665.1,385.7 634.5,383.2 651.8,387.4" />
<polygon points="644.6,390.3 593.6,381.2 582.7,381.6 633.1,390.7" />
<polygon points="554.3,380.4 520.6,389.2 556.4,388.4 571.4,382.8" />
<polygon points="288.1,381.2 226.3,390.3 292.8,383.6" />
<polygon points="489.4,382.6 485.9,387.6 520.6,389.2 532.1,382.0" />
<polygon points="577.3,388.1 634.5,383.2 579.0,386.4" />
<polygon points="537.6,381.5 579.5,389.4 577.3,388.1 535.7,380.2" />
<polygon points="651.8,387.4 634.5,383.2 637.2,388.9" />
<polygon points="571.4,382.8 556.4,388.4 574.6,388.4 581.6,384.5" />
<polygon points="579.5,389.4 634.5,383.2 577.3,388.1" />
<polygon points="637.2,388.9 634.5,383.2 622.1,390.0" />
<polygon points="429.1,385.5 443.2,389.6 489.4,382.6 490.1,376.7" />
<polygon points="585.7,390.3 634.5,383.2 579.5,389.4" />
<polygon points="622.1,390.0 634.5,383.2 607.8,390.6" />
<polygon points="595.4,390.8 634.5,383.2 585.7,390.3" />
<polygon points="607.8,390.6 634.5,383.2 595.4,390.8" />
<polygon points="536.2,382.4 585.1,391.8 608.3,391.4 558.8,382.2" />
<polygon points="405.3,381.2 329.8,394.7 336.2,395.5 411.5,381.9" />
<polygon points="574.6,388.4 556.4,388.4 585.1,391.8" />
<polygon points="233.6,388.0 234.6,386.9 173.2,399.9 184.1,398.2" />
<polygon points="608.3,391.4 633.1,390.7 582.7,381.6 558.8,382.2" />
<polygon points="411.5,381.9 336.2,395.5 354.4,399.2 429.1,385.5" />
<polygon points="235.7,384.9 181.3,393.7 177.4,396.3 232.5,386.7" />
<polygon points="226.3,390.3 233.6,388.0 184.1,398.2 200.2,396.6" />
<polygon points="249.5,396.4 303.3,387.1 292.8,383.6" />
<polygon points="443.2,389.6 446.9,392.3 485.9,387.6 489.4,382.6" />
<polygon points="556.4,388.4 575.5,392.7 585.1,391.8" />
<polygon points="633.1,390.7 622.9,391.5 644.6,390.3" />
<polygon points="608.3,391.4 605.4,391.9 622.9,391.5 633.1,390.7" />
<polygon points="226.3,390.3 249.5,396.4 292.8,383.6" />
<polygon points="248.9,397.6 303.7,388.0 303.3,387.1 249.5,396.4" />
<polygon points="585.1,391.8 575.5,392.7 605.4,391.9 608.3,391.4" />
<polygon points="232.5,386.7 177.4,396.3 173.2,399.9 234.6,386.9" />
<polygon points="485.9,387.6 469.2,396.3 492.5,397.5 520.6,389.2" />
<polygon points="605.4,391.9 609.4,395.4 622.9,391.5" />
<polygon points="429.1,385.5 354.4,399.2 371.6,402.0 443.2,389.6" />
<polygon points="622.9,391.5 609.4,395.4 625.2,395.9 644.6,390.3" />
<polygon points="556.4,388.4 518.3,399.0 564.6,396.7 575.5,392.7" />
<polygon points="520.6,389.2 492.5,397.5 518.3,399.0 556.4,388.4" />
<polygon points="303.7,388.0 248.9,397.6 277.2,405.6 329.8,394.7" />
<polygon points="226.3,390.3 207.6,399.0 249.5,396.4" />
<polygon points="575.5,392.7 564.6,396.7 609.4,395.4 605.4,391.9" />
<polygon points="446.9,392.3 432.4,398.4 469.2,396.3 485.9,387.6" />
<polygon points="371.6,402.0 446.9,392.3 443.2,389.6" />
<polygon points="200.2,396.6 207.6,399.0 226.3,390.3" />
<polygon points="219.6,395.7 207.7,395.8 231.9,403.1 244.3,403.0" />
<polygon points="228.0,396.1 219.6,395.7 244.3,403.0 253.1,403.4" />
<polygon points="207.7,395.8 192.9,396.4 216.7,403.8 231.9,403.1" />
<polygon points="232.4,397.1 228.0,396.1 253.1,403.4 257.6,404.4" />
<polygon points="492.5,397.5 469.2,396.3 448.8,404.2 465.9,406.1" />
<polygon points="192.9,396.4 176.2,397.5 199.5,404.9 216.7,403.8" />
<polygon points="371.6,402.0 432.4,398.4 446.9,392.3" />
<polygon points="184.1,398.2 177.8,401.0 200.2,396.6" />
<polygon points="518.3,399.0 492.5,397.5 465.9,406.1 488.4,407.9" />
<polygon points="176.2,397.5 158.6,399.1 181.4,406.6 199.5,404.9" />
<polygon points="219.1,403.6 248.9,397.6 249.5,396.4 221.5,402.8" />
<polygon points="184.1,398.2 173.2,399.9 151.6,407.4 177.8,401.0" />
<polygon points="207.6,399.0 221.5,402.8 249.5,396.4" />
<polygon points="587.5,407.0 625.2,395.9 609.4,395.4 570.9,406.4" />
<polygon points="336.2,395.5 284.9,406.5 354.4,399.2" />
<polygon points="329.8,394.7 277.2,405.6 284.9,406.5 336.2,395.5" />
<polygon points="158.6,399.1 141.1,400.9 163.6,408.5 181.4,406.6" />
<polygon points="200.2,396.6 175.1,404.0 177.5,408.4 207.6,399.0" />
<polygon points="432.4,398.4 415.3,403.8 448.8,404.2 469.2,396.3" />
<polygon points="177.8,401.0 175.1,404.0 200.2,396.6" />
<polygon points="177.4,396.3 128.4,405.6 133.0,407.4 173.2,399.9" />
<polygon points="371.6,402.0 415.3,403.8 432.4,398.4" />
<polygon points="248.9,397.6 232.5,408.2 277.2,405.6" />
<polygon points="141.1,400.9 125.0,403.0 147.1,410.7 163.6,408.5" />
<polygon points="115.7,405.1 128.4,405.6 177.4,396.3 181.3,393.7" />
<polygon points="244.3,403.0 231.9,403.1 189.1,411.4" />
<polygon points="253.1,403.4 244.3,403.0 189.1,411.4" />
<polygon points="219.1,403.6 232.5,408.2 248.9,397.6" />
<polygon points="231.9,403.1 216.7,403.8 189.1,411.4" />
<polygon points="207.6,399.0 177.5,408.4 181.3,412.4 221.5,402.8" />
<polygon points="257.6,404.4 253.1,403.4 189.1,411.4" />
<polygon points="125.0,403.0 111.3,405.1 133.1,413.0 147.1,410.7" />
<polygon points="528.5,407.5 570.9,406.4 609.4,395.4 564.6,396.7" />
<polygon points="177.8,401.0 151.6,407.4 143.4,412.9 175.1,404.0" />
<polygon points="216.7,403.8 199.5,404.9 189.1,411.4" />
<polygon points="488.4,407.9 528.5,407.5 564.6,396.7 518.3,399.0" />
<polygon points="257.7,405.9 257.6,404.4 189.1,411.4" />
<polygon points="354.4,399.2 314.1,415.2 371.6,402.0" />
<polygon points="371.6,402.0 388.7,411.7 415.3,403.8" />
<polygon points="465.9,406.1 448.8,404.2 417.0,414.1 429.2,415.8" />
<polygon points="199.5,404.9 181.4,406.6 189.1,411.4" />
<polygon points="139.7,409.1 151.6,407.4 173.2,399.9" />
<polygon points="133.0,407.4 139.7,409.1 173.2,399.9" />
<polygon points="111.3,405.1 101.1,407.2 122.8,415.3 133.1,413.0" />
<polygon points="253.2,407.7 257.7,405.9 189.1,411.4" />
<polygon points="388.7,411.7 371.6,402.0 314.1,415.2 351.3,420.8" />
<polygon points="83.2,412.2 115.7,405.1 109.3,404.7 90.7,409.2" />
<polygon points="181.4,406.6 163.6,408.5 189.1,411.4" />
<polygon points="488.4,407.9 465.9,406.1 429.2,415.8 451.1,417.8" />
<polygon points="415.3,403.8 388.7,411.7 417.0,414.1 448.8,404.2" />
<polygon points="284.9,406.5 314.1,415.2 354.4,399.2" />
<polygon points="244.3,409.8 253.2,407.7 189.1,411.4" />
<polygon points="101.1,407.2 95.3,409.0 116.9,417.3 122.8,415.3" />
<polygon points="232.5,408.2 247.0,412.1 277.2,405.6" />
<polygon points="277.2,405.6 247.0,412.1 256.6,413.5 284.9,406.5" />
<polygon points="115.7,405.1 83.2,412.2 83.9,414.9 128.4,405.6" />
<polygon points="139.7,409.1 133.0,407.4 92.7,417.7 125.6,414.4" />
<polygon points="163.6,408.5 147.1,410.7 189.1,411.4" />
<polygon points="175.1,404.0 143.4,412.9 140.2,420.8 177.5,408.4" />
<polygon points="221.5,402.8 185.4,415.5 200.6,422.4 238.4,408.4" />
<polygon points="95.3,409.0 94.3,410.6 116.0,418.9 116.9,417.3" />
<polygon points="231.5,412.1 244.3,409.8 189.1,411.4" />
<polygon points="128.4,405.6 83.9,414.9 92.7,417.7 133.0,407.4" />
<polygon points="552.6,417.9 587.5,407.0 570.9,406.4 535.2,417.2" />
<polygon points="147.1,410.7 133.1,413.0 189.1,411.4" />
<polygon points="139.7,409.1 125.6,414.4 143.4,412.9 151.6,407.4" />
<polygon points="181.3,412.4 185.4,415.5 221.5,402.8" />
<polygon points="284.9,406.5 271.4,418.5 314.1,415.2" />
<polygon points="215.4,414.4 231.5,412.1 189.1,411.4" />
<polygon points="133.1,413.0 122.8,415.3 189.1,411.4" />
<polygon points="417.0,414.1 388.7,411.7 351.3,420.8 375.6,425.8" />
<polygon points="256.6,413.5 271.4,418.5 284.9,406.5" />
<polygon points="197.2,416.5 215.4,414.4 189.1,411.4" />
<polygon points="122.8,415.3 116.9,417.3 189.1,411.4" />
<polygon points="489.6,417.3 535.2,417.2 570.9,406.4 528.5,407.5" />
<polygon points="177.5,408.4 140.2,420.8 139.1,425.9 181.3,412.4" />
<polygon points="451.1,417.8 489.6,417.3 528.5,407.5 488.4,407.9" />
<polygon points="138.5,416.5 150.5,412.3 105.5,427.3 108.5,427.3" />
<polygon points="180.2,422.8 148.2,411.5 116.6,412.2 147.6,423.8" />
<polygon points="429.2,415.8 417.0,414.1 375.6,425.8 381.5,428.0" />
<polygon points="178.1,418.3 197.2,416.5 189.1,411.4" />
<polygon points="238.4,408.4 200.6,422.4 216.2,427.7 256.6,413.5" />
<polygon points="83.2,412.2 71.6,418.7 66.8,425.7 83.9,414.9" />
<polygon points="147.6,423.8 116.6,412.2 93.2,411.7 123.4,423.3" />
<polygon points="117.5,419.7 125.6,414.4 92.7,417.7 102.4,423.8" />
<polygon points="116.9,417.3 116.0,418.9 189.1,411.4" />
<polygon points="125.6,414.4 117.5,419.7 140.2,420.8 143.4,412.9" />
<polygon points="159.5,419.7 178.1,418.3 189.1,411.4" />
<polygon points="451.1,417.8 429.2,415.8 381.5,428.0 401.0,430.1" />
<polygon points="116.0,418.9 120.3,420.1 189.1,411.4" />
<polygon points="351.3,420.8 314.1,415.2 283.9,422.1 295.3,432.3" />
<polygon points="142.9,420.4 159.5,419.7 189.1,411.4" />
<polygon points="120.3,420.1 129.5,420.6 189.1,411.4" />
<polygon points="129.5,420.6 142.9,420.4 189.1,411.4" />
<polygon points="271.4,418.5 283.9,422.1 314.1,415.2" />
<polygon points="181.3,412.4 139.1,425.9 146.5,431.5 185.4,415.5" />
<polygon points="140.2,420.8 117.5,419.7 120.1,428.0 139.1,425.9" />
<polygon points="83.9,414.9 66.8,425.7 82.0,430.3 92.7,417.7" />
<polygon points="117.5,419.7 102.4,423.8 120.1,428.0" />
<polygon points="256.6,413.5 227.5,429.8 242.7,431.9 271.4,418.5" />
<polygon points="510.1,430.2 552.6,417.9 535.2,417.2 492.0,429.5" />
<polygon points="375.6,425.8 351.3,420.8 295.3,432.3 303.6,441.9" />
<polygon points="185.4,415.5 146.5,431.5 160.8,437.6 200.6,422.4" />
<polygon points="95.8,431.3 102.4,423.8 92.7,417.7 82.0,430.3" />
<polygon points="216.2,427.7 227.5,429.8 256.6,413.5" />
<polygon points="439.6,430.1 492.0,429.5 535.2,417.2 489.6,417.3" />
<polygon points="401.0,430.1 439.6,430.1 489.6,417.3 451.1,417.8" />
<polygon points="139.1,425.9 120.1,428.0 131.0,435.9 146.5,431.5" />
<polygon points="381.5,428.0 375.6,425.8 303.6,441.9 325.2,442.8" />
<polygon points="401.0,430.1 381.5,428.0 325.2,442.8 349.7,445.8" />
<polygon points="280.7,433.0 295.3,432.3 283.9,422.1" />
<polygon points="242.7,431.9 265.0,433.4 283.9,422.1 271.4,418.5" />
<polygon points="200.6,422.4 160.8,437.6 175.3,442.6 216.2,427.7" />
<polygon points="265.0,433.4 280.7,433.0 283.9,422.1" />
<polygon points="66.8,425.7 65.7,435.5 83.2,439.6 82.0,430.3" />
<polygon points="95.8,431.3 82.0,430.3 83.2,439.6 103.8,437.9" />
<polygon points="95.8,431.3 103.8,437.9 120.1,428.0 102.4,423.8" />
<polygon points="120.1,428.0 103.8,437.9 115.3,444.2 131.0,435.9" />
<polygon points="105.5,427.3 98.9,441.0 102.1,439.8 108.5,427.3" />
<polygon points="146.5,431.5 131.0,435.9 146.4,442.5 160.8,437.6" />
<polygon points="216.2,427.7 175.3,442.6 193.4,446.6 227.5,429.8" />
<polygon points="492.0,429.5 438.6,444.1 448.9,447.5 510.1,430.2" />
<polygon points="227.5,429.8 193.4,446.6 213.3,448.0 242.7,431.9" />
<polygon points="439.6,430.1 385.7,447.9 438.6,444.1 492.0,429.5" />
<polygon points="280.7,433.0 267.0,447.2 303.6,441.9 295.3,432.3" />
<polygon points="103.8,437.9 83.2,439.6 96.2,448.6 115.3,444.2" />
<polygon points="337.2,447.6 380.6,434.7 334.6,436.8 301.9,448.8" />
<polygon points="334.6,436.8 284.1,441.8 301.9,448.8" />
<polygon points="242.7,431.9 213.3,448.0 242.9,448.6 265.0,433.4" />
<polygon points="160.8,437.6 146.4,442.5 161.1,448.1 175.3,442.6" />
<polygon points="131.0,435.9 115.3,444.2 131.5,451.1 146.4,442.5" />
<polygon points="265.0,433.4 242.9,448.6 267.0,447.2 280.7,433.0" />
<polygon points="349.7,445.8 385.7,447.9 439.6,430.1 401.0,430.1" />
<polygon points="79.8,444.2 96.2,448.6 83.2,439.6 65.7,435.5" />
<polygon points="175.3,442.6 161.1,448.1 183.9,453.4 193.4,446.6" />
<polygon points="284.1,441.8 236.4,451.1 301.9,448.8" />
<polygon points="438.6,444.1 430.8,449.0 448.9,447.5" />
<polygon points="371.8,440.6 408.6,451.4 419.8,452.1 382.4,441.2" />
<polygon points="357.4,440.7 393.6,451.6 408.6,451.4 371.8,440.6" />
<polygon points="382.4,441.2 419.8,452.1 426.4,453.6 388.5,442.6" />
<polygon points="339.9,441.7 375.5,452.6 393.6,451.6 357.4,440.7" />
<polygon points="385.7,447.9 430.8,449.0 438.6,444.1" />
<polygon points="146.4,442.5 131.5,451.1 145.8,457.2 161.1,448.1" />
<polygon points="267.0,447.2 259.4,451.5 303.6,441.9" />
<polygon points="115.3,444.2 96.2,448.6 106.3,461.7 131.5,451.1" />
<polygon points="303.6,441.9 264.8,454.2 271.7,456.4 325.2,442.8" />
<polygon points="320.5,443.3 355.5,454.4 375.5,452.6 339.9,441.7" />
<polygon points="349.7,445.8 334.5,453.9 385.7,447.9" />
<polygon points="381.3,451.2 430.8,449.0 385.7,447.9" />
<polygon points="193.4,446.6 183.9,453.4 211.2,455.0 213.3,448.0" />
<polygon points="242.9,448.6 235.5,453.1 259.4,451.5 267.0,447.2" />
<polygon points="259.4,451.5 264.8,454.2 303.6,441.9" />
<polygon points="325.2,442.8 271.7,456.4 278.2,463.9 349.7,445.8" />
<polygon points="300.2,445.5 334.6,456.8 355.5,454.4 320.5,443.3" />
<polygon points="213.3,448.0 211.2,455.0 235.5,453.1 242.9,448.6" />
<polygon points="287.2,460.6 337.2,447.6 301.9,448.8 249.9,461.9" />
<polygon points="236.4,451.1 215.8,457.3 301.9,448.8" />
<polygon points="259.4,451.5 235.5,453.1 208.7,463.9 264.8,454.2" />
<polygon points="98.9,441.0 132.8,464.6 135.2,462.7 102.1,439.8" />
<polygon points="161.1,448.1 145.8,457.2 161.6,462.5 183.9,453.4" />
<polygon points="280.4,448.3 314.3,459.8 334.6,456.8 300.2,445.5" />
<polygon points="334.5,453.9 328.7,456.5 381.3,451.2 385.7,447.9" />
<polygon points="349.7,445.8 278.2,463.9 281.1,467.4 334.5,453.9" />
<polygon points="183.9,453.4 192.9,460.2 211.2,455.0" />
<polygon points="328.7,456.5 334.5,453.9 281.1,467.4" />
<polygon points="393.6,451.6 348.4,464.2 408.6,451.4" />
<polygon points="408.6,451.4 348.4,464.2 419.8,452.1" />
<polygon points="375.5,452.6 348.4,464.2 393.6,451.6" />
<polygon points="419.8,452.1 348.4,464.2 426.4,453.6" />
<polygon points="262.3,451.4 295.8,463.2 314.3,459.8 280.4,448.3" />
<polygon points="215.8,457.3 221.5,461.4 301.9,448.8" />
<polygon points="131.5,451.1 106.3,461.7 140.3,468.4 145.8,457.2" />
<polygon points="355.5,454.4 348.4,464.2 375.5,452.6" />
<polygon points="211.2,455.0 192.9,460.2 208.7,463.9 235.5,453.1" />
<polygon points="426.4,453.6 348.4,464.2 427.9,455.8" />
<polygon points="334.6,456.8 348.4,464.2 355.5,454.4" />
<polygon points="221.5,461.4 249.9,461.9 301.9,448.8" />
<polygon points="427.9,455.8 348.4,464.2 424.1,458.6" />
<polygon points="264.8,454.2 208.7,463.9 220.0,469.3 271.7,456.4" />
<polygon points="247.2,454.6 280.4,466.7 295.8,463.2 262.3,451.4" />
<polygon points="174.8,464.4 192.9,460.2 183.9,453.4 161.6,462.5" />
<polygon points="314.3,459.8 348.4,464.2 334.6,456.8" />
<polygon points="424.1,458.6 348.4,464.2 415.2,461.8" />
<polygon points="295.8,463.2 348.4,464.2 314.3,459.8" />
<polygon points="415.2,461.8 348.4,464.2 401.4,465.3" />
<polygon points="271.7,456.4 220.0,469.3 237.5,473.1 278.2,463.9" />
<polygon points="145.8,457.2 140.3,468.4 158.4,472.9 161.6,462.5" />
<polygon points="236.2,457.8 269.4,470.2 280.4,466.7 247.2,454.6" />
<polygon points="174.8,464.4 161.6,462.5 158.4,472.9 179.0,471.8" />
<polygon points="280.4,466.7 348.4,464.2 295.8,463.2" />
<polygon points="401.4,465.3 348.4,464.2 383.6,468.8" />
<polygon points="269.4,470.2 348.4,464.2 280.4,466.7" />
<polygon points="230.4,460.6 263.7,473.3 269.4,470.2 236.2,457.8" />
<polygon points="383.6,468.8 348.4,464.2 362.9,472.1" />
<polygon points="174.8,464.4 179.0,471.8 208.7,463.9 192.9,460.2" />
<polygon points="263.7,473.3 348.4,464.2 269.4,470.2" />
<polygon points="362.9,472.1 348.4,464.2 340.8,474.9" />
<polygon points="278.2,463.9 237.5,473.1 258.9,473.9 281.1,467.4" />
<polygon points="208.7,463.9 179.0,471.8 194.7,480.9 220.0,469.3" />
<polygon points="230.3,462.9 263.9,475.8 263.7,473.3 230.4,460.6" />
<polygon points="263.9,475.8 348.4,464.2 263.7,473.3" />
<polygon points="340.8,474.9 348.4,464.2 318.8,477.0" />
<polygon points="270.1,477.6 348.4,464.2 263.9,475.8" />
<polygon points="318.8,477.0 348.4,464.2 298.6,478.2" />
<polygon points="282.0,478.4 348.4,464.2 270.1,477.6" />
<polygon points="298.6,478.2 348.4,464.2 282.0,478.4" />
<polygon points="179.0,471.8 158.4,472.9 176.4,485.4 194.7,480.9" />
<polygon points="258.9,473.9 237.5,473.1 230.1,484.5 256.6,479.6" />
<polygon points="132.8,464.6 198.1,484.1 199.3,481.5 135.2,462.7" />
<polygon points="296.8,479.4 334.6,477.3 287.2,460.6 249.9,461.9" />
<polygon points="220.0,469.3 194.7,480.9 230.1,484.5 237.5,473.1" />
<polygon points="266.9,478.9 296.8,479.4 249.9,461.9 221.5,461.4" />
<polygon points="258.9,473.9 256.6,479.6 266.9,478.9" />
<polygon points="334.6,477.3 309.2,479.1 336.2,477.9" />
<polygon points="160.6,480.9 176.4,485.4 158.4,472.9 140.3,468.4" />
<polygon points="256.6,479.6 230.1,484.5 237.4,486.7 282.5,478.4" />
<polygon points="282.5,478.4 237.4,486.7 259.5,487.0 309.2,479.1" />
<polygon points="194.7,480.9 176.4,485.4 212.4,488.3 230.1,484.5" />
<polygon points="309.2,479.1 259.5,487.0 263.9,490.3 336.2,477.9" />
<polygon points="230.1,484.5 212.4,488.3 237.4,486.7" />
<polygon points="198.1,484.1 263.9,490.3 259.5,487.0 199.3,481.5" />
</g><g stroke="#585858" stroke-width="1" stroke-miterlimit="1">
<polygon fill="#585858" points="530.1,237.9 530.3,223.5 529.0,226.0 529.0,228.0" />
<polygon fill="#2f2f2f" points="513.7,290.8 517.7,307.8 553.7,312.0 551.2,294.6" />
<polygon fill="#656565" points="512.1,240.9 530.1,237.9 529.0,228.0 513.5,230.1" />
<polygon fill="#5d5d5d" points="528.7,223.5 510.6,226.2 512.2,226.3 530.3,223.5" />
<polygon fill="#616161" points="530.3,223.5 512.2,226.3 513.6,228.0 529.0,226.0" />
<polygon fill="#2f2f2f" points="505.6,274.4 513.7,290.8 551.2,294.6 542.1,277.8" />
<polygon fill="#2f2f2f" points="521.8,331.6 553.1,335.5 553.7,312.0 517.7,307.8" />
<polygon fill="#7c7c7c" points="529.0,226.0 513.6,228.0 551.0,229.5 566.4,227.3" />
<polygon fill="#2c2c2c" points="510.6,226.2 510.4,240.9 512.1,240.9 512.2,226.3" />
<polygon fill="#4b4b4b" points="512.2,226.3 512.1,240.9 513.5,230.1 513.6,228.0" />
<polygon fill="#2e2e2e" points="513.6,228.0 513.5,230.1 551.0,231.6 551.0,229.5" />
<polygon fill="#2f2f2f" points="491.2,269.6 505.6,274.4 542.1,277.8 528.3,272.6" />
<polygon fill="#656565" points="547.8,322.4 548.8,312.0 523.9,315.9" />
<polygon fill="#656565" points="545.2,332.4 547.8,322.4 523.9,315.9" />
<polygon fill="#656565" points="548.8,312.0 548.2,301.9 523.9,315.9" />
<polygon fill="#656565" points="541.1,341.4 545.2,332.4 523.9,315.9" />
<polygon fill="#6d6d6d" points="566.3,255.1 568.1,255.2 582.4,255.4 562.8,254.2" />
<polygon fill="#2d2d2d" points="477.0,348.3 483.3,351.0 516.6,356.6 510.3,353.8" />
<polygon fill="#656565" points="548.2,301.9 546.0,292.6 523.9,315.9" />
<polygon fill="#656565" points="535.9,348.7 541.1,341.4 523.9,315.9" />
<polygon fill="#7b7b7b" points="553.6,257.5 566.3,255.1 562.8,254.2 537.1,257.4" />
<polygon fill="#767676" points="491.0,271.9 484.2,274.0 517.9,276.9 524.6,274.8" />
<polygon fill="#656565" points="546.0,292.6 542.2,284.7 523.9,315.9" />
<polygon fill="#2f2f2f" points="471.5,342.9 477.0,348.3 510.3,353.8 504.9,348.3" />
<polygon fill="#656565" points="529.8,353.9 535.9,348.7 523.9,315.9" />
<polygon fill="#656565" points="542.2,284.7 537.2,278.9 523.9,315.9" />
<polygon fill="#777777" points="568.1,255.2 555.4,256.4 560.7,257.1 582.4,255.4" />
<polygon fill="#606060" points="484.2,274.0 477.7,278.7 511.4,281.8 517.9,276.9" />
<polygon fill="#666666" points="568.6,229.7 555.9,230.4 555.4,256.4 568.1,255.2" />
<polygon fill="#7c7c7c" points="598.3,256.6 582.4,255.4 560.7,257.1 582.9,258.2" />
<polygon fill="#2f2f2f" points="467.3,335.3 471.5,342.9 504.9,348.3 500.7,340.5" />
<polygon fill="#656565" points="523.2,356.6 529.8,353.9 523.9,315.9" />
<polygon fill="#656565" points="537.2,278.9 531.2,275.5 523.9,315.9" />
<polygon fill="#454545" points="477.7,278.7 472.1,285.7 505.8,289.1 511.4,281.8" />
<polygon fill="#2d2d2d" points="555.9,230.4 554.1,231.6 553.6,257.5 555.4,256.4" />
<polygon fill="#2f2f2f" points="464.6,326.0 467.3,335.3 500.7,340.5 498.2,330.9" />
<polygon fill="#282828" points="556.4,228.4 551.0,229.5 551.0,231.6 556.3,230.6" />
<polygon fill="#656565" points="516.6,356.6 523.2,356.6 523.9,315.9" />
<polygon fill="#323232" points="472.1,285.7 467.7,294.7 501.3,298.4 505.8,289.1" />
<polygon fill="#2f2f2f" points="463.8,315.6 464.6,326.0 498.2,330.9 497.4,320.1" />
<polygon fill="#656565" points="531.2,275.5 524.6,274.8 523.9,315.9" />
<polygon fill="#2f2f2f" points="467.7,294.7 464.8,304.9 498.5,309.0 501.3,298.4" />
<polygon fill="#2f2f2f" points="464.8,304.9 463.8,315.6 497.4,320.1 498.5,309.0" />
<polygon fill="#7e7e7e" points="571.7,227.5 556.4,228.4 644.9,231.9 659.5,230.9" />
<polygon fill="#656565" points="510.3,353.8 516.6,356.6 523.9,315.9" />
<polygon fill="#656565" points="524.6,274.8 517.9,276.9 523.9,315.9" />
<polygon fill="#2f2f2f" points="556.4,228.4 556.3,230.6 644.8,234.2 644.9,231.9" />
<polygon fill="#656565" points="504.9,348.3 510.3,353.8 523.9,315.9" />
<polygon fill="#757575" points="599.8,254.9 586.7,256.2 615.1,255.8" />
<polygon fill="#656565" points="517.9,276.9 511.4,281.8 523.9,315.9" />
<polygon fill="#656565" points="500.7,340.5 504.9,348.3 523.9,315.9" />
<polygon fill="#656565" points="511.4,281.8 505.8,289.1 523.9,315.9" />
<polygon fill="#656565" points="498.2,330.9 500.7,340.5 523.9,315.9" />
<polygon fill="#656565" points="505.8,289.1 501.3,298.4 523.9,315.9" />
<polygon fill="#656565" points="497.4,320.1 498.2,330.9 523.9,315.9" />
<polygon fill="#656565" points="501.3,298.4 498.5,309.0 523.9,315.9" />
<polygon fill="#656565" points="498.5,309.0 497.4,320.1 523.9,315.9" />
<polygon fill="#767676" points="615.1,255.8 614.8,258.0 629.4,256.7" />
<polygon fill="#7b7b7b" points="586.7,256.2 614.8,258.0 615.1,255.8" />
<polygon fill="#7c7c7c" points="629.4,256.7 614.8,258.0 618.7,260.6 635.8,258.9" />
<polygon fill="#7c7c7c" points="635.8,258.9 618.7,260.6 637.5,262.2 656.3,260.0" />
<polygon fill="#7a7a7a" points="614.8,258.0 602.5,256.8 606.3,259.4 618.7,260.6" />
<polygon fill="#737373" points="660.1,261.2 662.2,261.3 674.4,261.1 656.3,260.0" />
<polygon fill="#7a7a7a" points="648.0,262.3 660.1,261.2 656.3,260.0 637.5,262.2" />
<polygon fill="#2f2f2f" points="660.5,324.7 659.5,351.2 699.9,356.9 707.3,330.4" />
<polygon fill="#797979" points="659.5,230.9 644.9,231.9 651.1,233.4 665.8,231.1" />
<polygon fill="#7b7b7b" points="662.2,261.3 650.0,263.7 656.4,265.5 674.4,261.1" />
<polygon fill="#7a7a7a" points="602.5,256.8 590.5,255.4 594.5,258.0 606.3,259.4" />
<polygon fill="#666666" points="660.5,324.7 658.4,305.6 635.5,329.7" />
<polygon fill="#666666" points="662.5,233.5 650.3,235.5 650.0,263.7 662.2,261.3" />
<polygon fill="#616161" points="650.0,263.7 648.0,262.3 637.5,262.2 656.4,265.5" />
<polygon fill="#707070" points="606.3,259.4 594.5,258.0 612.9,260.7 625.8,261.1" />
<polygon fill="#2d2d2d" points="650.3,235.5 648.2,234.1 648.0,262.3 650.0,263.7" />
<polygon fill="#666666" points="658.4,305.6 650.0,287.1 635.5,329.7" />
<polygon fill="#2a2a2a" points="651.1,233.4 644.9,231.9 644.8,234.2 651.1,235.8" />
<polygon fill="#797979" points="637.5,262.2 625.8,261.1 640.9,264.2 656.4,265.5" />
<polygon fill="#7e7e7e" points="674.4,261.1 656.4,265.5 672.5,268.8 699.1,266.3" />
<polygon fill="#2f2f2f" points="660.5,324.7 707.3,330.4 707.6,310.7 658.4,305.6" />
<polygon fill="#000000" points="707.3,310.4 703.6,310.1 697.5,354.8" />
<polygon fill="#666666" points="635.5,329.7 633.9,359.5 659.5,351.2 660.5,324.7" />
<polygon fill="#7b7b7b" points="699.1,266.3 696.2,274.8 704.4,276.6" />
<polygon fill="#2f2f2f" points="658.4,305.6 707.6,310.7 697.7,291.1 650.0,287.1" />
<polygon fill="#666666" points="650.0,287.1 637.0,281.6 635.5,329.7" />
<polygon fill="#7d7d7d" points="704.4,276.6 699.1,295.3 703.6,310.1 707.3,310.4" />
<polygon fill="#787878" points="625.8,261.1 612.9,260.7 640.9,264.2" />
<polygon fill="#2f2f2f" points="637.0,281.6 650.0,287.1 697.7,291.1 686.2,285.7" />
<polygon fill="#7b7b7b" points="656.4,265.5 640.9,264.2 653.5,267.4 672.5,268.8" />
<polygon fill="#7d7d7d" points="699.1,266.3 672.5,268.8 696.2,274.8" />
<polygon fill="#7e7e7e" points="700.0,235.3 714.2,232.9 665.8,231.1 651.1,233.4" />
<polygon fill="#7c7c7c" points="590.5,255.4 550.9,243.8 555.0,246.5 594.5,258.0" />
<polygon fill="#7d7d7d" points="696.2,274.8 693.2,284.7 699.1,295.3 704.4,276.6" />
<polygon fill="#7c7c7c" points="640.9,264.2 612.9,260.7 616.7,262.4 653.5,267.4" />
<polygon fill="#666666" points="637.0,281.6 623.6,290.0 635.5,329.7" />
<polygon fill="#666666" points="607.9,357.7 633.9,359.5 635.5,329.7 608.6,335.1" />
<polygon fill="#676767" points="701.0,233.4 717.6,230.1 715.3,230.1 698.7,233.3" />
<polygon fill="#646464" points="633.9,359.5 607.9,357.7 608.1,367.5" />
<polygon fill="#666666" points="717.6,230.1 701.0,233.4 700.7,250.8 717.3,247.1" />
<polygon fill="#2e2e2e" points="699.9,237.8 700.0,235.3 651.1,233.4 651.1,235.8" />
<polygon fill="#656565" points="707.3,331.0 684.3,336.2 706.1,343.0" />
<polygon fill="#656565" points="706.1,343.0 684.3,336.2 703.4,354.5" />
<polygon fill="#7d7d7d" points="696.2,274.8 680.5,279.8 693.2,284.7" />
<polygon fill="#656565" points="707.1,319.3 684.3,336.2 707.3,331.0" />
<polygon fill="#656565" points="703.4,354.5 684.3,336.2 699.4,364.9" />
<polygon fill="#656565" points="705.3,308.6 684.3,336.2 707.1,319.3" />
<polygon fill="#656565" points="699.4,364.9 684.3,336.2 694.4,373.6" />
<polygon fill="#666666" points="623.6,290.0 610.8,311.9 635.5,329.7" />
<polygon fill="#2d2d2d" points="700.7,250.8 701.0,233.4 698.7,233.3 698.4,250.7" />
<polygon fill="#656565" points="702.1,299.7 684.3,336.2 705.3,308.6" />
<polygon fill="#7d7d7d" points="672.5,268.8 680.5,279.8 696.2,274.8" />
<polygon fill="#656565" points="694.4,373.6 684.3,336.2 688.6,379.8" />
<polygon fill="#2e2e2e" points="631.8,376.0 676.3,383.5 670.6,380.5 625.8,373.0" />
<polygon fill="#7c7c7c" points="693.2,284.7 680.5,279.8 686.2,285.7 697.7,291.1" />
<polygon fill="#666666" points="610.8,311.9 608.6,335.1 635.5,329.7" />
<polygon fill="#656565" points="697.7,293.1 684.3,336.2 702.1,299.7" />
<polygon fill="#656565" points="688.6,379.8 684.3,336.2 682.5,383.2" />
<polygon fill="#656565" points="692.3,289.2 684.3,336.2 697.7,293.1" />
<polygon fill="#2f2f2f" points="625.8,373.0 670.6,380.5 665.7,374.3 620.8,367.1" />
<polygon fill="#787878" points="634.6,287.2 679.8,291.2 686.2,288.6 641.1,284.7" />
<polygon fill="#656565" points="682.5,383.2 684.3,336.2 676.3,383.5" />
<polygon fill="#656565" points="686.2,288.6 684.3,336.2 692.3,289.2" />
<polygon fill="#656565" points="676.3,383.5 684.3,336.2 670.6,380.5" />
<polygon fill="#2f2f2f" points="620.8,367.1 665.7,374.3 662.1,365.4 617.0,358.4" />
<polygon fill="#606060" points="628.4,292.7 673.7,297.0 679.8,291.2 634.6,287.2" />
<polygon fill="#7d7d7d" points="653.5,267.4 642.9,273.7 672.5,268.8" />
<polygon fill="#656565" points="679.8,291.2 684.3,336.2 686.2,288.6" />
<polygon fill="#656565" points="670.6,380.5 684.3,336.2 665.7,374.3" />
<polygon fill="#7e7e7e" points="672.5,268.8 642.9,273.7 666.9,284.1 680.5,279.8" />
<polygon fill="#7e7e7e" points="616.7,262.4 613.0,267.6 642.9,273.7 653.5,267.4" />
<polygon fill="#2f2f2f" points="617.0,358.4 662.1,365.4 659.9,354.3 614.7,347.7" />
<polygon fill="#656565" points="673.7,297.0 684.3,336.2 679.8,291.2" />
<polygon fill="#454545" points="622.8,301.0 668.2,305.6 673.7,297.0 628.4,292.7" />
<polygon fill="#656565" points="665.7,374.3 684.3,336.2 662.1,365.4" />
<polygon fill="#7e7e7e" points="680.5,279.8 666.9,284.1 673.9,294.6 686.2,285.7" />
<polygon fill="#656565" points="668.2,305.6 684.3,336.2 673.7,297.0" />
<polygon fill="#656565" points="662.1,365.4 684.3,336.2 659.9,354.3" />
<polygon fill="#2f2f2f" points="614.7,347.7 659.9,354.3 659.5,341.8 614.1,335.8" />
<polygon fill="#323232" points="618.4,311.5 663.8,316.5 668.2,305.6 622.8,301.0" />
<polygon fill="#7c7c7c" points="572.5,250.2 585.2,255.6 616.7,262.4 612.9,260.7" />
<polygon fill="#656565" points="663.8,316.5 684.3,336.2 668.2,305.6" />
<polygon fill="#656565" points="659.9,354.3 684.3,336.2 659.5,341.8" />
<polygon fill="#2f2f2f" points="614.1,335.8 659.5,341.8 660.8,328.9 615.4,323.4" />
<polygon fill="#2f2f2f" points="615.4,323.4 660.8,328.9 663.8,316.5 618.4,311.5" />
<polygon fill="#656565" points="660.8,328.9 684.3,336.2 663.8,316.5" />
<polygon fill="#656565" points="659.5,341.8 684.3,336.2 660.8,328.9" />
<polygon fill="#7d7d7d" points="550.9,243.8 499.7,234.5 503.8,237.4 555.0,246.5" />
<polygon fill="#737373" points="673.9,294.6 666.9,284.1 662.3,318.9" />
<polygon fill="#7d7d7d" points="555.0,246.5 503.8,237.4 520.8,242.2 572.5,250.2" />
<polygon fill="#7e7e7e" points="585.2,255.6 587.4,259.7 613.0,267.6 616.7,262.4" />
<polygon fill="#686868" points="666.9,284.1 651.8,320.7 662.3,318.9" />
<polygon fill="#474747" points="659.5,365.7 649.4,366.5 659.8,375.9" />
<polygon fill="#4c4c4c" points="660.4,342.1 650.5,349.4 649.4,366.5 659.5,365.7" />
<polygon fill="#525252" points="662.3,318.9 651.8,320.7 650.5,349.4 660.4,342.1" />
<polygon fill="#7e7e7e" points="613.0,267.6 599.7,273.1 618.8,278.3 642.9,273.7" />
<polygon fill="#5f5f5f" points="650.5,349.4 636.4,369.8 649.4,366.5" />
<polygon fill="#7e7e7e" points="572.5,250.2 520.8,242.2 535.6,247.3 585.2,255.6" />
<polygon fill="#767676" points="649.4,366.5 636.4,369.8 640.9,381.2 659.8,375.9" />
<polygon fill="#727272" points="666.9,284.1 632.5,291.3 638.0,327.4 651.8,320.7" />
<polygon fill="#7e7e7e" points="642.9,273.7 618.8,278.3 632.5,291.3 666.9,284.1" />
<polygon fill="#7d7d7d" points="468.0,233.1 423.6,232.8 458.6,234.5 499.7,234.5" />
<polygon fill="#636363" points="386.9,238.9 370.6,245.5 419.9,235.9" />
<polygon fill="#676767" points="651.8,320.7 638.0,327.4 636.4,369.8 650.5,349.4" />
<polygon fill="#7e7e7e" points="587.4,259.7 575.5,263.4 599.7,273.1 613.0,267.6" />
<polygon fill="#7d7d7d" points="535.6,247.3 587.4,259.7 585.2,255.6" />
<polygon fill="#575757" points="358.0,247.8 370.6,245.5 386.9,238.9" />
<polygon fill="#7e7e7e" points="618.8,278.3 599.7,273.1 577.9,282.4 592.7,286.4" />
<polygon fill="#2f2f2f" points="265.9,378.0 306.4,388.2 298.6,376.8 262.5,368.1" />
<polygon fill="#7e7e7e" points="535.6,247.3 575.5,263.4 587.4,259.7" />
<polygon fill="#7e7e7e" points="632.5,291.3 618.8,278.3 592.7,286.4 603.1,299.6" />
<polygon fill="#626262" points="370.6,245.5 391.2,242.9 419.9,235.9" />
<polygon fill="#7e7e7e" points="604.0,391.4 640.9,381.2 636.4,369.8 599.4,379.5" />
<polygon fill="#7d7d7d" points="503.8,237.4 463.5,238.1 520.8,242.2" />
<polygon fill="#7e7e7e" points="499.7,234.5 458.6,234.5 463.5,238.1 503.8,237.4" />
<polygon fill="#595959" points="358.0,247.8 314.0,273.2 319.1,274.9 370.6,245.5" />
<polygon fill="#7e7e7e" points="575.5,263.4 561.7,265.6 577.9,282.4 599.7,273.1" />
<polygon fill="#494949" points="314.7,272.0 314.0,273.2 358.0,247.8" />
<polygon fill="#7e7e7e" points="535.6,247.3 561.7,265.6 575.5,263.4" />
<polygon fill="#2f2f2f" points="281.1,317.1 246.1,311.2 259.9,335.9 295.6,342.7" />
<polygon fill="#2f2f2f" points="298.6,376.8 295.6,342.7 259.9,335.9 262.5,368.1" />
<polygon fill="#7a7a7a" points="423.6,232.8 416.1,235.1 458.6,234.5" />
<polygon fill="#666666" points="281.3,368.1 282.5,355.5 241.6,362.0" />
<polygon fill="#666666" points="277.6,380.3 281.3,368.1 241.6,362.0" />
<polygon fill="#686868" points="397.2,235.7 416.1,235.1 423.6,232.8" />
<polygon fill="#666666" points="282.5,355.5 280.9,343.3 241.6,362.0" />
<polygon fill="#616161" points="370.6,245.5 319.1,274.9 325.5,276.5 391.2,242.9" />
<polygon fill="#666666" points="271.4,391.4 277.6,380.3 241.6,362.0" />
<polygon fill="#7b7b7b" points="225.8,308.0 214.9,307.5 240.5,311.9 251.5,312.3" />
<polygon fill="#6e6e6e" points="601.2,338.8 599.4,379.5 636.4,369.8 638.0,327.4" />
<polygon fill="#2f2f2f" points="416.1,235.1 397.2,235.7 391.2,242.9 414.1,242.7" />
<polygon fill="#565656" points="314.7,272.0 267.6,298.0 259.5,303.5 314.0,273.2" />
<polygon fill="#666666" points="280.9,343.3 276.8,332.2 241.6,362.0" />
<polygon fill="#686868" points="603.1,299.6 601.2,338.8 638.0,327.4 632.5,291.3" />
<polygon fill="#666666" points="263.2,400.7 271.4,391.4 241.6,362.0" />
<polygon fill="#7d7d7d" points="520.8,242.2 494.5,245.1 535.6,247.3" />
<polygon fill="#7e7e7e" points="535.6,247.3 538.5,270.4 561.7,265.6" />
<polygon fill="#7e7e7e" points="592.7,286.4 577.9,282.4 549.1,289.4 556.5,295.8" />
<polygon fill="#666666" points="276.8,332.2 270.2,322.9 241.6,362.0" />
<polygon fill="#434343" points="253.2,302.1 267.6,298.0 288.7,291.1" />
<polygon fill="#717171" points="246.7,300.2 253.2,302.1 288.7,291.1" />
<polygon fill="#777777" points="214.9,307.5 203.9,310.3 229.4,314.9 240.5,311.9" />
<polygon fill="#666666" points="253.5,407.5 263.2,400.7 241.6,362.0" />
<polygon fill="#7e7e7e" points="538.5,270.4 535.6,247.3 494.5,245.1 503.7,277.1" />
<polygon fill="#666666" points="270.2,322.9 261.6,316.1 241.6,362.0" />
<polygon fill="#7e7e7e" points="603.1,299.6 592.7,286.4 556.5,295.8 566.4,308.9" />
<polygon fill="#2e2e2e" points="186.8,395.1 196.0,401.2 221.1,409.0 211.8,402.8" />
<polygon fill="#7e7e7e" points="561.7,265.6 538.5,270.4 549.1,289.4 577.9,282.4" />
<polygon fill="#7e7e7e" points="463.5,238.1 494.5,245.1 520.8,242.2" />
<polygon fill="#666666" points="242.7,411.4 253.5,407.5 241.6,362.0" />
<polygon fill="#606060" points="203.9,310.3 193.6,316.4 218.9,321.2 229.4,314.9" />
<polygon fill="#7c7c7c" points="416.1,235.1 432.2,237.5 458.6,234.5" />
<polygon fill="#7e7e7e" points="458.6,234.5 432.2,237.5 434.7,245.6 463.5,238.1" />
<polygon fill="#7a7a7a" points="253.2,302.1 246.7,300.2 210.7,306.5 242.1,304.6" />
<polygon fill="#2f2f2f" points="432.2,237.5 416.1,235.1 414.1,242.7 434.7,245.6" />
<polygon fill="#666666" points="261.6,316.1 251.5,312.3 241.6,362.0" />
<polygon fill="#626262" points="314.0,273.2 259.5,303.5 255.0,312.6 319.1,274.9" />
<polygon fill="#2f2f2f" points="179.4,386.2 186.8,395.1 211.8,402.8 204.3,393.6" />
<polygon fill="#636363" points="391.2,242.9 331.6,277.7 351.2,280.4 414.1,242.7" />
<polygon fill="#454545" points="193.6,316.4 184.7,325.4 209.8,330.5 218.9,321.2" />
<polygon fill="#666666" points="231.7,411.9 242.7,411.4 241.6,362.0" />
<polygon fill="#747474" points="242.4,298.1 198.9,306.6 210.7,306.5 246.7,300.2" />
<polygon fill="#7e7e7e" points="569.8,401.6 604.0,391.4 599.4,379.5 565.1,389.0" />
<polygon fill="#2f2f2f" points="174.6,375.0 179.4,386.2 204.3,393.6 199.5,382.0" />
<polygon fill="#666666" points="251.5,312.3 240.5,311.9 241.6,362.0" />
<polygon fill="#6a6a6a" points="253.2,302.1 242.1,304.6 259.5,303.5 267.6,298.0" />
<polygon fill="#606060" points="325.5,276.5 331.6,277.7 391.2,242.9" />
<polygon fill="#323232" points="184.7,325.4 177.9,336.6 202.9,342.2 209.8,330.5" />
<polygon fill="#7e7e7e" points="463.5,238.1 449.6,250.4 494.5,245.1" />
<polygon fill="#2f2f2f" points="172.6,362.4 174.6,375.0 199.5,382.0 197.5,369.0" />
<polygon fill="#2f2f2f" points="177.9,336.6 173.8,349.2 198.7,355.3 202.9,342.2" />
<polygon fill="#666666" points="221.1,409.0 231.7,411.9 241.6,362.0" />
<polygon fill="#2f2f2f" points="173.8,349.2 172.6,362.4 197.5,369.0 198.7,355.3" />
<polygon fill="#666666" points="240.5,311.9 229.4,314.9 241.6,362.0" />
<polygon fill="#7e7e7e" points="549.1,289.4 538.5,270.4 503.7,277.1 508.9,300.1" />
<polygon fill="#7d7d7d" points="434.7,245.6 449.6,250.4 463.5,238.1" />
<polygon fill="#666666" points="211.8,402.8 221.1,409.0 241.6,362.0" />
<polygon fill="#666666" points="229.4,314.9 218.9,321.2 241.6,362.0" />
<polygon fill="#707070" points="564.1,347.0 565.1,389.0 599.4,379.5 601.2,338.8" />
<polygon fill="#616161" points="319.1,274.9 255.0,312.6 255.4,316.4 325.5,276.5" />
<polygon fill="#666666" points="566.4,308.9 564.1,347.0 601.2,338.8 603.1,299.6" />
<polygon fill="#7e7e7e" points="556.5,295.8 549.1,289.4 508.9,300.1 509.4,307.3" />
<polygon fill="#666666" points="204.3,393.6 211.8,402.8 241.6,362.0" />
<polygon fill="#686868" points="414.1,242.7 351.2,280.4 370.3,282.5 434.7,245.6" />
<polygon fill="#434343" points="191.4,310.3 152.9,342.1 153.8,343.8 198.9,306.6" />
<polygon fill="#7a7a7a" points="233.4,310.5 242.1,304.6 210.7,306.5 214.7,318.0" />
<polygon fill="#666666" points="218.9,321.2 209.8,330.5 241.6,362.0" />
<polygon fill="#777777" points="242.1,304.6 233.4,310.5 255.0,312.6 259.5,303.5" />
<polygon fill="#666666" points="199.5,382.0 204.3,393.6 241.6,362.0" />
<polygon fill="#7e7e7e" points="566.4,308.9 556.5,295.8 509.4,307.3 519.2,318.5" />
<polygon fill="#666666" points="209.8,330.5 202.9,342.2 241.6,362.0" />
<polygon fill="#7e7e7e" points="503.7,277.1 494.5,245.1 461.0,255.0 451.8,284.7" />
<polygon fill="#666666" points="197.5,369.0 199.5,382.0 241.6,362.0" />
<polygon fill="#666666" points="202.9,342.2 198.7,355.3 241.6,362.0" />
<polygon fill="#666666" points="198.7,355.3 197.5,369.0 241.6,362.0" />
<polygon fill="#7e7e7e" points="449.6,250.4 461.0,255.0 494.5,245.1" />
<polygon fill="#616161" points="325.5,276.5 255.4,316.4 265.0,319.8 331.6,277.7" />
<polygon fill="#707070" points="255.0,312.6 233.4,310.5 231.7,323.0 255.4,316.4" />
<polygon fill="#5a5a5a" points="198.9,306.6 153.8,343.8 172.7,344.8 210.7,306.5" />
<polygon fill="#717171" points="233.4,310.5 214.7,318.0 231.7,323.0" />
<polygon fill="#727272" points="434.7,245.6 382.9,283.3 399.5,284.1 449.6,250.4" />
<polygon fill="#7e7e7e" points="528.3,413.0 569.8,401.6 565.1,389.0 523.5,399.7" />
<polygon fill="#7e7e7e" points="508.9,300.1 503.7,277.1 451.8,284.7 442.0,311.4" />
<polygon fill="#636363" points="331.6,277.7 265.0,319.8 282.2,323.2 351.2,280.4" />
<polygon fill="#676767" points="193.2,339.5 214.7,318.0 210.7,306.5 172.7,344.8" />
<polygon fill="#6e6e6e" points="370.3,282.5 382.9,283.3 434.7,245.6" />
<polygon fill="#747474" points="516.4,357.6 523.5,399.7 565.1,389.0 564.1,347.0" />
<polygon fill="#686868" points="519.2,318.5 516.4,357.6 564.1,347.0 566.4,308.9" />
<polygon fill="#636363" points="255.4,316.4 231.7,323.0 242.2,331.1 265.0,319.8" />
<polygon fill="#7e7e7e" points="509.4,307.3 508.9,300.1 442.0,311.4 461.0,314.6" />
<polygon fill="#7e7e7e" points="519.2,318.5 509.4,307.3 461.0,314.6 474.0,328.5" />
<polygon fill="#7e7e7e" points="438.1,284.5 451.8,284.7 461.0,255.0" />
<polygon fill="#747474" points="399.5,284.1 422.8,284.7 461.0,255.0 449.6,250.4" />
<polygon fill="#656565" points="351.2,280.4 282.2,323.2 299.2,325.8 370.3,282.5" />
<polygon fill="#787878" points="422.8,284.7 438.1,284.5 461.0,255.0" />
<polygon fill="#474747" points="153.8,343.8 127.4,377.4 157.6,369.5 172.7,344.8" />
<polygon fill="#595959" points="193.2,339.5 172.7,344.8 157.6,369.5 191.6,355.1" />
<polygon fill="#646464" points="193.2,339.5 191.6,355.1 231.7,323.0 214.7,318.0" />
<polygon fill="#5f5f5f" points="231.7,323.0 191.6,355.1 201.8,362.7 242.2,331.1" />
<polygon fill="#454545" points="124.0,409.8 118.6,422.5 127.5,415.8 132.6,404.6" />
<polygon fill="#616161" points="265.0,319.8 242.2,331.1 260.5,334.9 282.2,323.2" />
<polygon fill="#3c3c3c" points="411.6,414.7 412.8,404.3 363.3,422.9 358.3,428.1" />
<polygon fill="#6a6a6a" points="370.3,282.5 299.2,325.8 319.8,327.5 382.9,283.3" />
<polygon fill="#7e7e7e" points="523.5,399.7 472.1,412.6 468.4,429.0 528.3,413.0" />
<polygon fill="#6e6e6e" points="382.9,283.3 319.8,327.5 341.5,327.1 399.5,284.1" />
<polygon fill="#787878" points="516.4,357.6 465.2,372.9 472.1,412.6 523.5,399.7" />
<polygon fill="#7e7e7e" points="438.1,284.5 404.1,317.9 442.0,311.4 451.8,284.7" />
<polygon fill="#565656" points="191.6,355.1 157.6,369.5 159.8,388.6 201.8,362.7" />
<polygon fill="#545454" points="363.3,422.9 412.8,404.3 410.2,365.4 363.2,391.0" />
<polygon fill="#666666" points="410.2,365.4 395.9,336.3 363.2,391.0" />
<polygon fill="#727272" points="399.5,284.1 341.5,327.1 377.4,321.7 422.8,284.7" />
<polygon fill="#2f2f2f" points="411.6,414.7 468.4,429.0 464.9,416.8 412.8,404.3" />
<polygon fill="#626262" points="282.2,323.2 260.5,334.9 277.7,338.1 299.2,325.8" />
<polygon fill="#5c5c5c" points="242.2,331.1 201.8,362.7 220.3,367.4 260.5,334.9" />
<polygon fill="#787878" points="422.8,284.7 377.4,321.7 404.1,317.9 438.1,284.5" />
<polygon fill="#2f2f2f" points="412.8,404.3 464.9,416.8 461.2,375.8 410.2,365.4" />
<polygon fill="#717171" points="474.0,328.5 465.2,372.9 516.4,357.6 519.2,318.5" />
<polygon fill="#2f2f2f" points="126.9,399.8 127.5,415.8 162.9,436.6 161.9,419.8" />
<polygon fill="#404040" points="126.9,399.8 159.8,388.6 157.6,369.5 127.4,377.4" />
<polygon fill="#656565" points="299.2,325.8 277.7,338.1 307.2,337.2 319.8,327.5" />
<polygon fill="#666666" points="395.9,336.3 362.9,331.8 363.2,391.0" />
<polygon fill="#7c7c7c" points="472.1,412.6 464.9,416.8 468.4,429.0" />
<polygon fill="#7e7e7e" points="465.2,372.9 464.9,416.8 472.1,412.6" />
<polygon fill="#5b5b5b" points="260.5,334.9 220.3,367.4 236.6,371.6 277.7,338.1" />
<polygon fill="#7d7d7d" points="404.1,317.9 394.6,323.9 442.0,311.4" />
<polygon fill="#525252" points="201.8,362.7 159.8,388.6 172.1,399.7 220.3,367.4" />
<polygon fill="#7e7e7e" points="442.0,311.4 402.8,324.1 412.4,323.7 461.0,314.6" />
<polygon fill="#797979" points="474.0,328.5 453.3,341.9 465.2,372.9" />
<polygon fill="#7d7d7d" points="461.2,375.8 464.9,416.8 465.2,372.9" />
<polygon fill="#6b6b6b" points="319.8,327.5 307.2,337.2 344.8,329.1 341.5,327.1" />
<polygon fill="#797979" points="377.4,321.7 371.9,324.4 394.6,323.9 404.1,317.9" />
<polygon fill="#7b7b7b" points="394.6,323.9 402.8,324.1 442.0,311.4" />
<polygon fill="#7e7e7e" points="461.0,314.6 412.4,323.7 413.8,336.0 474.0,328.5" />
<polygon fill="#747474" points="341.5,327.1 344.8,329.1 371.9,324.4 377.4,321.7" />
<polygon fill="#2f2f2f" points="461.2,375.8 447.0,344.9 395.9,336.3 410.2,365.4" />
<polygon fill="#5f5f5f" points="314.7,434.7 363.3,422.9 363.2,391.0 314.3,401.2" />
<polygon fill="#666666" points="362.9,331.8 338.9,341.3 363.2,391.0" />
<polygon fill="#757575" points="394.6,323.9 371.9,324.4 350.5,330.2 402.8,324.1" />
<polygon fill="#4d4d4d" points="118.6,422.5 154.2,444.4 162.9,436.6 127.5,415.8" />
<polygon fill="#5b5b5b" points="277.7,338.1 236.6,371.6 258.1,371.6 307.2,337.2" />
<polygon fill="#7e7e7e" points="453.3,341.9 447.0,344.9 461.2,375.8 465.2,372.9" />
<polygon fill="#3c3c3c" points="126.9,399.8 161.9,419.8 172.1,399.7 159.8,388.6" />
<polygon fill="#333333" points="363.3,422.9 314.7,434.7 304.6,440.1 358.3,428.1" />
<polygon fill="#7d7d7d" points="474.0,328.5 413.8,336.0 415.4,340.7 453.3,341.9" />
<polygon fill="#646464" points="307.2,337.2 322.5,338.0 344.8,329.1" />
<polygon fill="#7c7c7c" points="447.0,344.9 453.3,341.9 415.4,340.7" />
<polygon fill="#666666" points="455.5,393.2 413.3,403.0 454.0,408.6" />
<polygon fill="#666666" points="454.0,408.6 413.3,403.0 449.8,423.7" />
<polygon fill="#666666" points="454.2,378.3 413.3,403.0 455.5,393.2" />
<polygon fill="#666666" points="449.8,423.7 413.3,403.0 443.3,437.6" />
<polygon fill="#666666" points="338.9,341.3 320.8,367.8 363.2,391.0" />
<polygon fill="#545454" points="220.3,367.4 172.1,399.7 208.8,403.9 236.6,371.6" />
<polygon fill="#666666" points="450.3,364.9 413.3,403.0 454.2,378.3" />
<polygon fill="#6b6b6b" points="344.8,329.1 322.5,338.0 350.5,330.2 371.9,324.4" />
<polygon fill="#666666" points="443.3,437.6 413.3,403.0 434.6,449.4" />
<polygon fill="#666666" points="443.8,353.8 413.3,403.0 450.3,364.9" />
<polygon fill="#666666" points="320.8,367.8 314.3,401.2 363.2,391.0" />
<polygon fill="#666666" points="434.6,449.4 413.3,403.0 424.4,458.3" />
<polygon fill="#747474" points="402.8,324.1 350.5,330.2 362.6,334.9 412.4,323.7" />
<polygon fill="#7d7d7d" points="374.4,334.6 413.4,341.3 424.8,341.5 385.7,334.9" />
<polygon fill="#5a5a5a" points="285.5,360.1 322.5,338.0 307.2,337.2 258.1,371.6" />
<polygon fill="#666666" points="435.1,345.8 413.3,403.0 443.8,353.8" />
<polygon fill="#666666" points="424.4,458.3 413.3,403.0 413.2,463.7" />
<polygon fill="#666666" points="424.8,341.5 413.3,403.0 435.1,345.8" />
<polygon fill="#666666" points="413.2,463.7 413.3,403.0 401.7,465.0" />
<polygon fill="#2f2f2f" points="352.4,450.1 390.7,462.1 381.0,455.0 342.7,443.2" />
<polygon fill="#7e7e7e" points="412.4,323.7 362.6,334.9 375.1,343.4 413.8,336.0" />
<polygon fill="#525252" points="236.6,371.6 208.8,403.9 242.6,393.5 258.1,371.6" />
<polygon fill="#737373" points="362.7,338.5 401.7,345.4 413.4,341.3 374.4,334.6" />
<polygon fill="#515151" points="285.5,360.1 258.1,371.6 242.6,393.5 285.3,371.6" />
<polygon fill="#666666" points="413.4,341.3 413.3,403.0 424.8,341.5" />
<polygon fill="#666666" points="401.7,465.0 413.3,403.0 390.7,462.1" />
<polygon fill="#2f2f2f" points="342.7,443.2 381.0,455.0 373.5,444.0 335.1,432.6" />
<polygon fill="#666666" points="401.7,345.4 413.3,403.0 413.4,341.3" />
<polygon fill="#606060" points="351.7,346.3 390.6,353.6 401.7,345.4 362.7,338.5" />
<polygon fill="#666666" points="390.7,462.1 413.3,403.0 381.0,455.0" />
<polygon fill="#5b5b5b" points="285.5,360.1 285.3,371.6 350.5,330.2 322.5,338.0" />
<polygon fill="#666666" points="390.6,353.6 413.3,403.0 401.7,345.4" />
<polygon fill="#666666" points="381.0,455.0 413.3,403.0 373.5,444.0" />
<polygon fill="#7e7e7e" points="413.8,336.0 375.1,343.4 389.5,350.7 415.4,340.7" />
<polygon fill="#606060" points="350.5,330.2 285.3,371.6 301.8,379.8 362.6,334.9" />
<polygon fill="#2f2f2f" points="335.1,432.6 373.5,444.0 368.6,430.0 330.2,419.1" />
<polygon fill="#454545" points="342.0,357.6 380.8,365.5 390.6,353.6 351.7,346.3" />
<polygon fill="#666666" points="380.8,365.5 413.3,403.0 390.6,353.6" />
<polygon fill="#666666" points="373.5,444.0 413.3,403.0 368.6,430.0" />
<polygon fill="#2f2f2f" points="214.5,430.1 161.9,419.8 162.9,436.6 228.9,453.6" />
<polygon fill="#666666" points="373.2,380.3 413.3,403.0 380.8,365.5" />
<polygon fill="#2f2f2f" points="330.2,419.1 368.6,430.0 366.8,413.8 328.4,403.6" />
<polygon fill="#323232" points="334.5,371.6 373.2,380.3 380.8,365.5 342.0,357.6" />
<polygon fill="#666666" points="368.6,430.0 413.3,403.0 366.8,413.8" />
<polygon fill="#666666" points="368.4,396.8 413.3,403.0 373.2,380.3" />
<polygon fill="#666666" points="366.8,413.8 413.3,403.0 368.4,396.8" />
<polygon fill="#2f2f2f" points="328.4,403.6 366.8,413.8 368.4,396.8 329.9,387.4" />
<polygon fill="#2f2f2f" points="329.9,387.4 368.4,396.8 373.2,380.3 334.5,371.6" />
<polygon fill="#3d3d3d" points="214.5,430.1 208.8,403.9 172.1,399.7 161.9,419.8" />
<polygon fill="#4f4f4f" points="285.3,371.6 242.6,393.5 250.5,415.5 301.8,379.8" />
<polygon fill="#646464" points="389.5,350.7 375.1,343.4 334.6,386.0 361.7,380.5" />
<polygon fill="#575757" points="154.2,444.4 221.0,462.4 228.9,453.6 162.9,436.6" />
<polygon fill="#676767" points="362.6,334.9 301.8,379.8 334.6,386.0 375.1,343.4" />
<polygon fill="#555555" points="389.5,350.7 361.7,380.5 372.5,379.3" />
<polygon fill="#424242" points="363.7,449.8 338.6,451.4 358.6,456.7" />
<polygon fill="#393939" points="365.2,414.8 348.8,415.9 338.6,451.4 363.7,449.8" />
<polygon fill="#3c3c3c" points="372.5,379.3 361.7,380.5 348.8,415.9 365.2,414.8" />
<polygon fill="#434343" points="214.5,430.1 250.5,415.5 242.6,393.5 208.8,403.9" />
<polygon fill="#303030" points="214.5,430.1 228.9,453.6 289.6,458.6 294.1,433.2" />
<polygon fill="#414141" points="361.7,380.5 334.6,386.0 294.1,433.2 348.8,415.9" />
<polygon fill="#434343" points="348.8,415.9 294.1,433.2 289.6,458.6 338.6,451.4" />
<polygon fill="#545454" points="301.8,379.8 250.5,415.5 290.1,415.0 334.6,386.0" />
<polygon fill="#7e7e7e" points="338.6,451.4 289.6,458.6 287.4,468.2 358.6,456.7" />
<polygon fill="#303030" points="214.5,430.1 294.1,433.2 290.1,415.0 250.5,415.5" />
<polygon fill="#3a3a3a" points="334.6,386.0 290.1,415.0 294.1,433.2" />
<polygon fill="#696969" points="221.0,462.4 287.4,468.2 289.6,458.6 228.9,453.6" />
</g></svg>