<?xml version="1.0" encoding="iso-8859-1"?>
<!-- Generator: Adobe Illustrator 19.0.0, SVG Export Plug-In . SVG Version: 6.00 Build 0)  -->
<svg version="1.1" id="Layer_1" xmlns="http://www.w3.org/2000/svg" xmlns:xlink="http://www.w3.org/1999/xlink" x="0px" y="0px"
	 viewBox="0 0 512 512" style="enable-background:new 0 0 512 512;" xml:space="preserve">
<path style="fill:#D9D8DB;" d="M495.195,76.184H16.805C7.524,76.184,0,83.708,0,92.989v369.716c0,9.281,7.524,16.805,16.805,16.805
	h478.39c9.281,0,16.805-7.524,16.805-16.805V92.989C512,83.708,504.476,76.184,495.195,76.184z M87.107,146.019
	c-14.025,0-25.395-11.369-25.395-25.395c0-14.025,11.37-25.394,25.395-25.394s25.395,11.369,25.395,25.395
	C112.502,134.649,101.132,146.019,87.107,146.019z M171.974,146.019c-14.025,0-25.395-11.369-25.395-25.395
	c0-14.025,11.37-25.394,25.395-25.394s25.395,11.369,25.395,25.395C197.369,134.649,185.998,146.019,171.974,146.019z M256,146.019
	c-14.025,0-25.395-11.369-25.395-25.395c0-14.025,11.37-25.394,25.395-25.394c14.025,0,25.395,11.369,25.395,25.395
	C281.395,134.649,270.025,146.019,256,146.019z M340.026,146.019c-14.025,0-25.395-11.369-25.395-25.395
	c0-14.025,11.37-25.394,25.395-25.394c14.025,0,25.395,11.369,25.395,25.395C365.421,134.649,354.051,146.019,340.026,146.019z
	 M424.053,146.019c-14.025,0-25.395-11.369-25.395-25.395c0-14.025,11.37-25.394,25.395-25.394s25.395,11.369,25.395,25.395
	C449.447,134.649,438.077,146.019,424.053,146.019z"/>
<path style="fill:#ACACB2;" d="M495.195,76.184H256V95.23c14.025,0,25.395,11.369,25.395,25.395S270.026,146.02,256,146.02v333.49
	h239.195c9.281,0,16.805-7.524,16.805-16.805V92.989C512,83.708,504.476,76.184,495.195,76.184z M340.026,146.019
	c-14.025,0-25.395-11.369-25.395-25.395c0-14.025,11.37-25.394,25.395-25.394c14.025,0,25.395,11.369,25.395,25.395
	C365.421,134.649,354.051,146.019,340.026,146.019z M424.053,146.019c-14.025,0-25.395-11.369-25.395-25.395
	c0-14.025,11.37-25.394,25.395-25.394s25.395,11.369,25.395,25.395C449.447,134.649,438.077,146.019,424.053,146.019z"/>
<path style="fill:#8A8A91;" d="M283.449,329.383h-54.897c-9.281,0-16.805,7.524-16.805,16.805v54.897
	c0,9.281,7.524,16.805,16.805,16.805h54.897c9.281,0,16.805-7.524,16.805-16.805v-54.897
	C300.254,336.907,292.73,329.383,283.449,329.383z"/>
<path style="fill:#797882;" d="M408.088,329.383H353.19c-9.281,0-16.805,7.524-16.805,16.805v54.897
	c0,9.281,7.524,16.805,16.805,16.805h54.897c9.281,0,16.805-7.524,16.805-16.805v-54.897
	C424.893,336.907,417.368,329.383,408.088,329.383z"/>
<g>
	<path style="fill:#8A8A91;" d="M158.81,329.383h-54.897c-9.281,0-16.805,7.524-16.805,16.805v54.897
		c0,9.281,7.524,16.805,16.805,16.805h54.897c9.281,0,16.805-7.524,16.805-16.805v-54.897
		C175.615,336.907,168.091,329.383,158.81,329.383z"/>
	<path style="fill:#8A8A91;" d="M283.449,198.302h-54.897c-9.281,0-16.805,7.524-16.805,16.805v54.897
		c0,9.281,7.524,16.805,16.805,16.805h54.897c9.281,0,16.805-7.524,16.805-16.805v-54.897
		C300.254,205.826,292.73,198.302,283.449,198.302z"/>
</g>
<path style="fill:#797882;" d="M408.088,198.302H353.19c-9.281,0-16.805,7.524-16.805,16.805v54.897
	c0,9.281,7.524,16.805,16.805,16.805h54.897c9.281,0,16.805-7.524,16.805-16.805v-54.897
	C424.893,205.826,417.368,198.302,408.088,198.302z"/>
<path style="fill:#8BBE4D;" d="M158.81,198.302h-54.897c-9.281,0-16.805,7.524-16.805,16.805v54.897
	c0,9.281,7.524,16.805,16.805,16.805h54.897c9.281,0,16.805-7.524,16.805-16.805v-54.897
	C175.615,205.826,168.091,198.302,158.81,198.302z"/>
<g>
	<path style="fill:#534532;" d="M256,123.824c-9.281,0-16.805-7.524-16.805-16.805V49.295c0-9.281,7.524-16.805,16.805-16.805
		s16.805,7.524,16.805,16.805v57.724C272.805,116.301,265.281,123.824,256,123.824z"/>
	<path style="fill:#534532;" d="M87.947,123.824c-9.281,0-16.805-7.524-16.805-16.805V49.295c0-9.281,7.524-16.805,16.805-16.805
		s16.805,7.524,16.805,16.805v57.724C104.753,116.301,97.228,123.824,87.947,123.824z"/>
	<path style="fill:#534532;" d="M340.026,123.824c-9.281,0-16.805-7.524-16.805-16.805V49.295c0-9.281,7.524-16.805,16.805-16.805
		s16.805,7.524,16.805,16.805v57.724C356.832,116.301,349.307,123.824,340.026,123.824z"/>
	<path style="fill:#534532;" d="M171.974,123.824c-9.281,0-16.805-7.524-16.805-16.805V49.295c0-9.281,7.524-16.805,16.805-16.805
		s16.805,7.524,16.805,16.805v57.724C188.779,116.301,181.255,123.824,171.974,123.824z"/>
	<path style="fill:#534532;" d="M424.053,123.824c-9.281,0-16.805-7.524-16.805-16.805V49.295c0-9.281,7.524-16.805,16.805-16.805
		s16.805,7.524,16.805,16.805v57.724C440.858,116.301,433.333,123.824,424.053,123.824z"/>
</g>
<g>
	<path style="fill:#797882;" d="M283.449,198.302H256v88.508h27.449c9.281,0,16.805-7.524,16.805-16.805v-54.897
		C300.254,205.826,292.73,198.302,283.449,198.302z"/>
	<path style="fill:#797882;" d="M283.449,329.383H256v88.508h27.449c9.281,0,16.805-7.524,16.805-16.805v-54.897
		C300.254,336.907,292.73,329.383,283.449,329.383z"/>
</g>
<g>
</g>
<g>
</g>
<g>
</g>
<g>
</g>
<g>
</g>
<g>
</g>
<g>
</g>
<g>
</g>
<g>
</g>
<g>
</g>
<g>
</g>
<g>
</g>
<g>
</g>
<g>
</g>
<g>
</g>
</svg>
