<svg width="1600" height="209" viewBox="0 0 1600 209" fill="none" xmlns="http://www.w3.org/2000/svg">
<path d="M0 50.6909L14 49.4885C28 48.3864 56 45.9817 84 37.465C112 28.9484 140 14.3198 168.2 6.90535C196.3 -0.408932 224.7 -0.408907 252.8 0.292462C281 0.893636 309 2.29636 337 8.60869C365 14.921 393 26.3433 421 24.8404C449 23.3375 477 8.90926 505 7.40633C533 5.90339 561 17.3257 589.2 27.9464C617.3 38.6674 645.7 48.687 673.8 45.1801C702 41.6733 730 24.64 758 24.3394C786 23.9386 814 40.3707 842 38.1664C870 35.9621 898 15.3218 926.2 12.6165C954.3 9.91123 982.7 25.3414 1010.8 35.8619C1039 46.3825 1067 51.9934 1095 49.3883C1123 46.6831 1151 35.6615 1179 36.4631C1207 37.3648 1235 49.9895 1263 54.3981C1291 58.7065 1319 54.6987 1347.2 47.8854C1375.3 40.9719 1403.7 31.3531 1431.8 23.4376C1460 15.6224 1488 9.61066 1516 16.3238C1544 22.9367 1572 42.3746 1586 51.9934L1600 61.7124V209H1586C1572 209 1544 209 1516 209C1488 209 1460 209 1431.8 209C1403.7 209 1375.3 209 1347.2 209C1319 209 1291 209 1263 209C1235 209 1207 209 1179 209C1151 209 1123 209 1095 209C1067 209 1039 209 1010.8 209C982.7 209 954.3 209 926.2 209C898 209 870 209 842 209C814 209 786 209 758 209C730 209 702 209 673.8 209C645.7 209 617.3 209 589.2 209C561 209 533 209 505 209C477 209 449 209 421 209C393 209 365 209 337 209C309 209 281 209 252.8 209C224.7 209 196.3 209 168.2 209C140 209 112 209 84 209C56 209 28 209 14 209H0V50.6909Z" fill="#003049"/>
</svg>
