<?xml version="1.0" standalone="no"?>
<!DOCTYPE svg PUBLIC "-//W3C//DTD SVG 20010904//EN"
 "http://www.w3.org/TR/2001/REC-SVG-20010904/DTD/svg10.dtd">
<svg version="1.0" xmlns="http://www.w3.org/2000/svg"
 width="269.000000pt" height="187.000000pt" viewBox="0 0 269.000000 187.000000"
 preserveAspectRatio="xMidYMid meet">

<g transform="translate(0.000000,187.000000) scale(0.100000,-0.100000)"
fill="#000000" stroke="none">
<path d="M1625 1821 c-8 -27 -74 -52 -97 -38 -25 16 -61 -19 -53 -51 9 -36
-13 -92 -41 -102 -18 -7 -24 -17 -24 -40 0 -23 6 -33 24 -40 28 -10 50 -66 41
-102 -8 -32 28 -67 53 -51 13 8 27 7 55 -4 34 -14 41 -22 35 -40 -4 -10 51
-20 75 -15 9 2 17 12 17 21 0 26 65 54 92 40 17 -9 25 -7 45 14 21 20 23 27
13 43 -16 27 12 94 40 94 17 0 20 7 20 40 0 32 -4 40 -18 40 -28 0 -60 74 -42
95 11 14 10 20 -12 42 -20 20 -29 23 -44 15 -25 -13 -90 13 -97 39 -7 27 -73
27 -82 0z m111 -120 c32 -20 64 -74 64 -111 0 -12 -8 -38 -17 -57 -36 -76
-134 -97 -197 -43 -61 54 -68 126 -18 186 40 47 113 59 168 25z"/>
<path d="M1895 1407 c-8 -31 -80 -59 -113 -44 -19 9 -27 6 -49 -15 -21 -21
-23 -29 -14 -46 16 -31 -12 -98 -45 -106 -19 -5 -24 -13 -25 -39 0 -31 -1 -31
-12 -9 -8 18 -8 29 2 44 11 18 9 24 -15 49 -22 23 -30 26 -47 17 -30 -16 -96
9 -103 39 -5 19 -13 23 -45 23 -32 0 -40 -4 -45 -24 -6 -27 -68 -50 -106 -41
-34 9 -74 -35 -59 -63 15 -28 -12 -90 -44 -102 -20 -8 -25 -16 -25 -45 0 -28
4 -36 24 -41 32 -8 61 -77 43 -105 -10 -16 -7 -23 16 -46 24 -25 29 -26 48
-14 18 11 27 10 60 -4 23 -11 40 -26 43 -41 5 -18 12 -22 34 -20 15 2 32 4 39
5 6 0 14 9 17 19 9 28 72 55 97 41 16 -8 25 -7 42 8 33 27 36 34 26 57 -14 30
14 96 41 96 16 0 20 7 20 30 0 17 4 30 9 30 14 0 21 -42 9 -63 -8 -16 -5 -25
20 -50 26 -26 33 -28 47 -17 24 20 101 -12 109 -46 6 -23 11 -25 49 -22 34 2
43 7 45 25 5 31 77 59 109 42 21 -11 27 -9 53 16 26 25 27 30 15 49 -12 18
-12 26 5 64 13 29 25 42 40 42 11 0 20 3 21 8 7 70 4 82 -21 87 -33 7 -64 80
-46 107 9 14 6 23 -16 45 -23 23 -30 25 -51 16 -31 -15 -102 15 -110 46 -4 17
-13 21 -46 21 -34 0 -42 -4 -46 -23z m133 -144 c81 -60 83 -159 3 -226 -61
-51 -146 -43 -200 18 -72 82 -40 193 66 230 47 16 88 10 131 -22z m-543 -92
c29 -13 47 -31 64 -63 31 -57 23 -105 -24 -156 -31 -35 -37 -37 -94 -37 -56 0
-63 3 -97 37 -71 71 -52 177 39 218 52 24 62 24 112 1z m202 -77 c-3 -3 -12
-4 -19 -1 -8 3 -5 6 6 6 11 1 17 -2 13 -5z"/>
<path d="M2527 1043 c-14 -13 -6 -25 8 -13 19 15 42 -1 48 -33 3 -16 5 -13 6
9 1 21 -5 34 -15 38 -20 8 -39 8 -47 -1z"/>
<path d="M2583 925 c-18 -8 -33 -16 -33 -19 0 -7 63 15 75 25 14 13 -5 10 -42
-6z"/>
<path d="M2295 900 c-3 -6 1 -7 9 -4 18 7 21 14 7 14 -6 0 -13 -4 -16 -10z"/>
<path d="M2250 891 c0 -5 7 -14 15 -21 19 -16 19 -29 -2 -52 -15 -17 -15 -18
1 -18 26 0 40 48 21 76 -15 24 -35 32 -35 15z"/>
<path d="M1955 839 c11 -7 24 -17 28 -23 5 -7 7 -3 5 9 -2 13 -12 21 -28 23
-24 2 -24 2 -5 -9z"/>
<path d="M2300 830 c0 -5 5 -10 11 -10 5 0 7 5 4 10 -3 6 -8 10 -11 10 -2 0
-4 -4 -4 -10z"/>
<path d="M2130 809 c-27 -12 -34 -17 -18 -14 36 7 78 23 78 30 0 8 -12 5 -60
-16z"/>
<path d="M1910 760 c-9 -17 -14 -19 -26 -9 -11 9 -18 9 -26 1 -9 -9 -8 -12 3
-12 8 0 20 -9 26 -20 10 -15 10 -22 -3 -35 -9 -9 -13 -19 -9 -23 3 -4 13 1 20
11 8 12 15 14 20 7 3 -5 11 -8 16 -4 5 3 0 17 -12 32 l-20 27 20 17 c12 9 17
19 12 23 -6 3 -15 -4 -21 -15z"/>
<path d="M2390 760 c-8 -5 -10 -10 -5 -10 6 0 17 5 25 10 8 5 11 10 5 10 -5 0
-17 -5 -25 -10z"/>
<path d="M2100 659 c-102 -38 -297 -110 -435 -160 -137 -50 -294 -107 -349
-127 -54 -20 -94 -38 -89 -39 5 -2 126 39 269 91 812 295 842 307 804 305 -8
-1 -98 -32 -200 -70z"/>
<path d="M1734 696 c6 -23 3 -29 -14 -33 -11 -3 -20 -9 -20 -14 0 -5 11 -4 24
1 19 7 26 5 35 -13 l12 -22 -5 23 c-3 16 3 26 22 37 l27 14 -32 -6 c-26 -4
-33 -2 -33 10 0 9 -5 19 -11 23 -9 5 -10 -1 -5 -20z"/>
<path d="M1592 670 c33 -25 52 -72 46 -111 -5 -29 -4 -30 9 -14 34 48 -11 145
-68 145 -6 0 0 -9 13 -20z"/>
<path d="M1430 620 c-17 -41 -5 -95 27 -120 14 -11 31 -20 37 -20 6 0 1 7 -10
15 -30 21 -47 69 -41 115 6 48 4 50 -13 10z"/>
<path d="M1549 633 c-8 -14 -20 -18 -38 -15 l-26 4 23 -17 c26 -19 29 -50 6
-63 -11 -6 -13 -12 -6 -16 6 -4 16 3 23 15 8 16 13 18 19 9 4 -7 13 -9 19 -6
7 5 4 14 -9 28 -18 20 -19 23 -4 46 9 13 13 26 10 29 -2 3 -10 -4 -17 -14z"/>
<path d="M2374 607 c3 -10 6 -34 6 -53 0 -19 3 -34 8 -34 11 0 2 83 -10 95 -8
7 -9 4 -4 -8z"/>
<path d="M1250 580 c0 -5 5 -10 10 -10 6 0 10 5 10 10 0 6 -4 10 -10 10 -5 0
-10 -4 -10 -10z"/>
<path d="M2275 582 c-7 -5 -6 -33 0 -80 13 -92 23 -86 17 11 -4 81 -4 79 -17
69z"/>
<path d="M2317 582 c6 -4 13 -21 16 -37 4 -27 4 -27 6 8 1 29 -3 37 -16 37
-12 0 -14 -3 -6 -8z"/>
<path d="M1357 574 c-12 -12 -8 -24 7 -24 8 0 20 -16 26 -35 11 -33 24 -44 33
-27 6 10 -35 85 -49 89 -5 2 -13 0 -17 -3z"/>
<path d="M1317 554 c-3 -4 0 -16 8 -28 8 -11 15 -31 15 -44 0 -18 4 -23 16
-18 9 3 17 6 19 6 2 0 -2 12 -10 28 -8 15 -16 35 -19 45 -5 17 -18 22 -29 11z"/>
<path d="M1268 534 c-3 -3 1 -19 9 -35 8 -16 12 -36 9 -44 -3 -8 0 -15 7 -15
15 0 46 20 31 20 -6 0 -16 18 -23 40 -11 38 -20 47 -33 34z"/>
<path d="M2075 494 c17 -24 25 -51 25 -78 0 -30 3 -37 10 -26 22 34 7 100 -29
127 -29 22 -31 14 -6 -23z"/>
<path d="M1191 502 c-12 -23 -2 -39 28 -43 14 -2 26 -10 29 -18 3 -10 -2 -13
-21 -9 -17 3 -24 1 -20 -7 5 -15 38 -8 54 11 16 19 -6 44 -38 44 -15 0 -23 5
-20 13 2 6 11 11 21 9 9 -2 16 2 16 8 0 17 -39 11 -49 -8z"/>
<path d="M2160 500 c0 -5 7 -10 15 -10 8 0 15 5 15 10 0 6 -7 10 -15 10 -8 0
-15 -4 -15 -10z"/>
<path d="M2021 483 c0 -5 4 -17 9 -28 8 -18 9 -17 9 8 1 15 -3 27 -9 27 -5 0
-10 -3 -9 -7z"/>
<path d="M1960 467 c0 -2 11 -25 24 -53 18 -36 26 -45 31 -33 6 17 -31 89 -46
89 -5 0 -9 -1 -9 -3z"/>
<path d="M1866 439 c-9 -33 15 -93 43 -109 14 -7 21 -7 21 0 0 5 -4 10 -8 10
-13 0 -34 45 -42 87 -7 36 -7 37 -14 12z"/>
<path d="M1803 409 c-40 -15 -21 -59 25 -59 15 0 22 -5 19 -12 -2 -7 -14 -12
-26 -11 -11 2 -21 -2 -21 -8 0 -6 12 -9 28 -7 37 4 39 49 3 58 -14 3 -27 12
-29 19 -3 10 1 12 17 8 11 -3 21 -1 21 3 0 15 -14 18 -37 9z"/>
<path d="M1695 359 c-4 -12 -8 -32 -10 -46 -1 -13 -8 -30 -14 -36 -17 -17 -46
5 -46 34 0 19 4 23 24 21 15 -2 21 0 17 7 -10 16 -41 13 -56 -4 -14 -17 -7
-57 15 -78 20 -21 54 -10 61 20 5 17 10 21 17 14 15 -15 50 -14 65 1 7 7 12
24 12 38 0 33 -17 50 -51 50 -19 0 -30 -6 -34 -21z m60 -13 c17 -25 11 -56
-11 -56 -7 0 -21 11 -30 25 -13 20 -14 28 -4 40 17 21 27 19 45 -9z"/>
<path d="M1970 335 c0 -8 4 -15 9 -15 5 0 11 7 15 15 3 9 0 15 -9 15 -8 0 -15
-7 -15 -15z"/>
<path d="M70 120 c0 -27 5 -50 10 -50 6 0 10 12 10 26 0 21 4 25 20 21 11 -3
20 -1 20 4 0 5 -9 9 -20 9 -13 0 -20 7 -20 20 0 11 -4 20 -10 20 -5 0 -10 -22
-10 -50z"/>
<path d="M910 120 c0 -27 4 -50 9 -50 4 0 6 12 3 26 -4 25 -3 26 22 22 16 -3
26 -1 26 7 0 8 -10 10 -27 7 -23 -4 -25 -2 -20 17 3 11 1 21 -4 21 -5 0 -9
-22 -9 -50z"/>
<path d="M1170 120 c0 -27 5 -50 10 -50 6 0 10 23 10 50 0 28 -4 50 -10 50 -5
0 -10 -22 -10 -50z"/>
<path d="M1658 159 c-34 -19 -17 -89 21 -89 11 0 9 5 -7 16 -26 18 -28 41 -5
66 18 20 16 22 -9 7z"/>
<path d="M1700 166 c0 -2 7 -6 15 -10 8 -3 15 -1 15 4 0 6 -7 10 -15 10 -8 0
-15 -2 -15 -4z"/>
<path d="M1400 118 c0 -38 4 -48 16 -48 13 0 14 3 4 15 -7 8 -10 23 -7 34 2
10 1 25 -4 32 -6 9 -9 -3 -9 -33z"/>
<path d="M2450 116 c0 -36 4 -46 16 -46 12 0 14 3 6 13 -6 7 -9 25 -7 39 3 15
1 30 -5 33 -6 4 -10 -11 -10 -39z"/>
<path d="M205 130 c-3 -6 -17 -7 -31 -4 l-24 6 27 -31 c30 -34 50 -42 31 -12
-9 15 -9 23 1 35 8 9 11 16 8 16 -3 0 -9 -5 -12 -10z"/>
<path d="M280 131 c0 -5 7 -11 15 -15 9 -3 12 -12 8 -22 -4 -12 -3 -15 5 -10
17 10 15 43 -4 50 -21 8 -24 8 -24 -3z"/>
<path d="M436 126 c4 -11 1 -16 -10 -16 -9 0 -16 4 -16 8 0 4 -10 9 -22 9 -13
1 -18 -1 -12 -5 6 -4 14 -17 18 -29 4 -13 15 -23 24 -22 11 0 12 3 5 6 -22 8
-14 23 12 23 28 0 32 12 10 30 -13 11 -14 10 -9 -4z"/>
<path d="M481 126 c-9 -10 -6 -17 13 -30 29 -18 36 -20 36 -7 0 5 -9 13 -20
16 -25 8 -26 22 -2 28 14 4 14 5 1 6 -9 0 -22 -5 -28 -13z"/>
<path d="M550 124 c-11 -13 -10 -16 8 -21 12 -3 22 -12 22 -20 0 -8 5 -11 10
-8 16 10 12 23 -10 30 -25 8 -26 22 -2 28 14 4 14 5 1 6 -9 0 -22 -6 -29 -15z"/>
<path d="M715 124 c10 -10 13 -24 9 -36 -4 -14 -2 -18 5 -14 22 14 5 66 -22
66 -5 0 -1 -7 8 -16z"/>
<path d="M800 133 c0 -5 4 -13 9 -18 5 -6 11 -19 14 -30 3 -11 5 -5 4 14 -1
19 -8 36 -14 39 -7 2 -13 0 -13 -5z"/>
<path d="M1004 105 c10 -32 36 -50 36 -25 0 6 -4 10 -9 10 -5 0 -12 11 -15 25
-4 14 -10 25 -15 25 -4 0 -3 -16 3 -35z"/>
<path d="M1118 104 c2 -19 8 -34 13 -34 14 0 10 57 -4 63 -9 3 -12 -5 -9 -29z"/>
<path d="M1352 105 c1 -19 5 -35 10 -35 11 0 10 57 -2 65 -5 3 -9 -9 -8 -30z"/>
<path d="M1495 126 c12 -8 16 -20 12 -35 -3 -11 -1 -19 4 -15 15 9 10 51 -7
58 -25 10 -29 7 -9 -8z"/>
<path d="M1575 131 c-3 -6 -11 -9 -16 -6 -5 4 -8 -9 -8 -27 1 -21 3 -25 6 -13
3 11 12 26 21 32 8 7 13 15 10 19 -3 3 -9 0 -13 -5z"/>
<path d="M1794 127 c13 -9 17 -21 13 -36 -3 -11 -1 -21 5 -21 5 0 8 15 6 32
-2 24 -9 34 -23 36 -20 4 -20 3 -1 -11z"/>
<path d="M1888 135 c-8 -8 4 -65 13 -65 12 0 12 57 0 64 -4 3 -10 3 -13 1z"/>
<path d="M1934 127 c3 -10 6 -27 6 -38 0 -10 4 -19 8 -19 13 0 7 49 -8 63 -10
10 -12 8 -6 -6z"/>
<path d="M2025 130 c-4 -6 1 -10 9 -10 8 0 17 -10 19 -22 4 -21 4 -20 6 3 1
27 -23 47 -34 29z"/>
<path d="M2125 126 c12 -8 16 -20 12 -35 -3 -11 -1 -19 4 -15 15 9 10 51 -7
58 -25 10 -29 7 -9 -8z"/>
<path d="M2210 131 c0 -6 4 -11 9 -11 5 0 12 -12 14 -27 4 -22 4 -20 3 6 0 19
-7 36 -13 39 -7 2 -13 -1 -13 -7z"/>
<path d="M2310 125 c10 -13 9 -15 -9 -15 -15 0 -20 4 -15 13 5 9 4 9 -5 1 -16
-15 -11 -46 9 -52 13 -5 13 -3 1 11 -12 15 -11 17 13 17 29 0 36 24 10 34 -14
5 -15 4 -4 -9z"/>
<path d="M2393 126 c4 -10 7 -26 7 -37 0 -10 5 -19 11 -19 15 0 6 63 -10 68
-10 3 -12 0 -8 -12z"/>
<path d="M240 80 c0 -27 4 -50 9 -50 12 0 17 35 12 73 -6 46 -21 30 -21 -23z"/>
<path d="M340 100 c0 -16 5 -30 10 -30 6 0 10 14 10 30 0 17 -4 30 -10 30 -5
0 -10 -13 -10 -30z"/>
<path d="M632 100 c0 -19 2 -27 5 -17 2 9 2 25 0 35 -3 9 -5 1 -5 -18z"/>
<path d="M670 106 c0 -14 4 -27 9 -30 4 -3 8 8 7 24 -1 36 -16 41 -16 6z"/>
<path d="M768 100 c2 -17 6 -30 8 -30 2 0 4 14 4 30 0 17 -4 30 -8 30 -5 0 -7
-13 -4 -30z"/>
<path d="M1228 100 c3 -20 10 -30 21 -29 10 0 11 2 4 6 -7 2 -13 16 -13 29 0
13 -4 24 -8 24 -5 0 -7 -13 -4 -30z"/>
<path d="M1274 100 c-1 -17 3 -30 7 -30 5 0 9 14 9 30 0 39 -15 39 -16 0z"/>
<path d="M1454 115 c-8 -19 2 -45 17 -45 8 0 8 4 -1 15 -7 8 -10 22 -6 30 3 8
3 15 0 15 -2 0 -7 -7 -10 -15z"/>
<path d="M1758 124 c-12 -11 -10 -42 3 -49 14 -10 16 -4 10 28 -3 16 -9 25
-13 21z"/>
<path d="M1850 100 c0 -16 5 -30 10 -30 6 0 10 14 10 30 0 17 -4 30 -10 30 -5
0 -10 -13 -10 -30z"/>
<path d="M1990 80 c0 -27 4 -50 9 -50 5 0 7 9 4 20 -3 12 0 20 7 20 10 0 10 3
0 15 -7 8 -10 22 -6 30 3 8 1 15 -4 15 -6 0 -10 -22 -10 -50z"/>
<path d="M2080 106 c0 -14 4 -27 9 -30 4 -3 8 8 7 24 -1 36 -16 41 -16 6z"/>
<path d="M2180 100 c0 -16 2 -30 4 -30 2 0 6 13 8 30 3 16 1 30 -4 30 -4 0 -8
-13 -8 -30z"/>
<path d="M2350 100 c0 -16 5 -30 10 -30 6 0 10 14 10 30 0 17 -4 30 -10 30 -5
0 -10 -13 -10 -30z"/>
<path d="M1085 90 c-8 -13 -1 -24 14 -19 6 3 7 10 2 18 -6 10 -10 10 -16 1z"/>
<path d="M1316 92 c-3 -6 -1 -14 5 -17 14 -9 20 -2 10 14 -6 8 -11 9 -15 3z"/>
</g>
</svg>
